<?xml version="1.0" encoding="UTF-8"?><svg id="Layer_1" xmlns="http://www.w3.org/2000/svg" viewBox="0 0 2315 444"><defs><style>.cls-1{fill:#03c75a;fill-rule:evenodd;stroke-width:0px;}</style></defs><g id="Logotype"><path id="Fill-1" class="cls-1" d="M665.53,0l-174,443.69h147.12l21.17-59.16h168.01l21.16,59.16h147.12L822.13,0h-156.6ZM743.84,142.41l49.59,138.59h-99.19l49.6-138.59Z"/><polygon id="Fill-2" class="cls-1" points="1471.56 0 1471.56 443.69 1819.11 443.69 1819.11 332.76 1612.06 332.76 1612.06 273.61 1811.72 273.61 1811.72 170.08 1612.06 170.08 1612.06 110.92 1819.11 110.92 1819.11 0 1471.56 0"/><polygon id="Fill-3" class="cls-1" points="1276.69 0 1172.3 291.74 1067.89 0 919.99 0 1093.99 443.69 1250.59 443.69 1424.59 0 1276.69 0"/><polygon id="Fill-4" class="cls-1" points="303.19 0 303.19 237.47 141.4 0 0 0 0 443.69 140.5 443.69 140.5 206.22 302.29 443.69 443.69 443.69 443.69 359.23 443.69 0 303.19 0"/><path id="Fill-5" class="cls-1" d="M2104.41,207.05h-78.25v-96.13h77.83c20.75,0,39.93,12.89,46.09,32.7,10.29,33.08-14.15,63.43-45.68,63.43h0ZM2202.82,291.48l13.47-5.63c51.56-21.59,77.79-68.28,77.79-127.55,0-56.04-20.44-97.51-60.76-123.23-37.48-23.92-86.08-35.06-152.95-35.06h-187.29v443.69h140.5v-125.71h50.49l85.61,125.71h145.33l-112.18-152.21Z"/></g></svg>