<svg width="375" height="726" viewBox="0 0 375 726" fill="none" xmlns="http://www.w3.org/2000/svg">
<rect opacity="0.05" x="1.14844" y="261.519" width="375" height="210.252" fill="url(#paint0_linear_1812_40321)"/>
<g opacity="0.2" filter="url(#filter0_f_1812_40321)">
<path d="M-0.460938 100.033C-0.460938 204.238 83.4857 288.714 187.039 288.714C290.592 288.714 374.539 204.238 374.539 100.033H446.078V625.968H374.539C374.539 521.763 290.592 437.288 187.039 437.288C83.4859 437.288 -0.460602 521.763 -0.460938 625.968H-72V100.033H-0.460938Z" fill="#00512A"/>
</g>
<g opacity="0.25" clip-path="url(#clip0_1812_40321)">
<path d="M18.6178 338.442L-11.8218 353.023C-14.111 354.12 -15.1655 356.697 -14.1731 358.768L-5.1751 377.552L33.5662 358.994L24.5682 340.21C23.5757 338.138 20.9069 337.345 18.6178 338.442Z" fill="#C2DEE4"/>
<path d="M10.9434 375.945L22.2135 370.547L24.2381 374.773L12.9679 380.172L10.9434 375.945Z" fill="#C2DEE4"/>
<rect x="9.96875" y="381.145" width="18.7448" height="3.90517" rx="1.10731" transform="rotate(-25.5959 9.96875 381.145)" fill="#005D91"/>
<path d="M-4.66853 378.611C-3.45956 381.134 -0.614736 382.295 1.67446 381.198L32.114 366.617C34.4032 365.52 35.2817 362.576 34.0727 360.052L33.5655 358.994L-5.17573 377.552L-4.66853 378.611Z" fill="#005D91"/>
</g>
<g opacity="0.2" clip-path="url(#clip1_1812_40321)">
<ellipse cx="58.5269" cy="373.575" rx="4.13938" ry="4.13938" transform="rotate(19.0874 58.5269 373.575)" fill="#039100"/>
<ellipse cx="58.5268" cy="373.575" rx="1.72474" ry="1.72474" transform="rotate(19.0874 58.5268 373.575)" fill="white"/>
<circle cx="68.9586" cy="377.184" r="4.13938" transform="rotate(19.0874 68.9586 377.184)" fill="#039100"/>
<circle cx="68.9585" cy="377.185" r="1.72474" transform="rotate(19.0874 68.9585 377.185)" fill="white"/>
<path d="M88.1906 354.47C88.1229 354.272 88.0108 354.091 87.8628 353.943C87.7149 353.794 87.535 353.681 87.3368 353.613L57.3867 343.249L55.1824 364.387L76.6569 371.818C76.9477 371.919 77.2637 371.919 77.5548 371.82C77.8459 371.72 78.0954 371.526 78.2635 371.268L88.041 355.671C88.2735 355.315 88.3289 354.872 88.1906 354.47Z" fill="#D8FAAB"/>
<path fill-rule="evenodd" clip-rule="evenodd" d="M49.1191 337.468C49.3683 336.748 50.1541 336.366 50.8742 336.615L57.0679 338.758C57.6635 338.965 58.0437 339.548 57.9918 340.176L55.6759 368.208L74.2229 374.626C74.943 374.875 75.3248 375.661 75.0756 376.381C74.8264 377.101 74.0406 377.483 73.3205 377.234L53.7614 370.466C53.1659 370.26 52.7857 369.676 52.8375 369.048L55.1534 341.016L49.9718 339.223C49.2517 338.974 48.8699 338.188 49.1191 337.468Z" fill="#4AD11B"/>
<path fill-rule="evenodd" clip-rule="evenodd" d="M55.0898 349.754C55.339 349.034 56.1248 348.652 56.8449 348.901L82.9236 357.926C83.6438 358.175 84.0256 358.961 83.7764 359.681C83.5272 360.401 82.7414 360.783 82.0212 360.533L55.9425 351.509C55.2224 351.26 54.8406 350.474 55.0898 349.754Z" fill="#4AD11B"/>
<path fill-rule="evenodd" clip-rule="evenodd" d="M54.1367 356.724C54.3859 356.004 55.1717 355.622 55.8918 355.871L79.3626 363.993C80.0828 364.242 80.4646 365.028 80.2154 365.748C79.9662 366.468 79.1804 366.85 78.4602 366.601L54.9894 358.479C54.2693 358.23 53.8875 357.444 54.1367 356.724Z" fill="#4AD11B"/>
<path fill-rule="evenodd" clip-rule="evenodd" d="M65.7908 347.64C66.543 347.762 67.0537 348.47 66.9316 349.223L64.3506 365.12C64.2285 365.872 63.5197 366.383 62.7675 366.261C62.0154 366.139 61.5046 365.43 61.6267 364.678L64.2077 348.78C64.3298 348.028 65.0386 347.517 65.7908 347.64Z" fill="#4AD11B"/>
<path fill-rule="evenodd" clip-rule="evenodd" d="M79.2778 352.306C78.611 351.937 77.7714 352.178 77.4025 352.845L69.6057 366.938C69.2368 367.605 69.4783 368.444 70.1451 368.813C70.8119 369.182 71.6515 368.941 72.0204 368.274L79.8171 354.181C80.186 353.514 79.9446 352.675 79.2778 352.306Z" fill="#4AD11B"/>
</g>
<g opacity="0.1" clip-path="url(#clip2_1812_40321)">
<path d="M116.704 358.072C116.622 357.775 116.268 357.614 115.912 357.711L112.918 358.533C112.562 358.631 112.34 358.951 112.421 359.248L112.567 359.781L116.85 358.605L116.704 358.072Z" fill="#344054"/>
<path d="M106.864 379.714C109.303 379.697 110.626 378.1 110.971 375.685L111.275 373.553C111.306 373.332 111.402 373.124 111.55 372.957C111.697 372.789 111.891 372.668 112.107 372.609L123.791 369.402C124.232 369.281 124.702 369.433 124.989 369.789L126.338 371.467C127.867 373.368 129.82 374.066 131.927 372.836C134.277 371.463 135.069 368.445 133.697 366.094L126.944 353.557C126.756 353.267 126.48 353.045 126.158 352.922C125.835 352.799 125.481 352.782 125.148 352.874L121.04 354.001C120.693 354.096 120.388 354.304 120.171 354.591C119.955 354.878 119.84 355.229 119.844 355.589L119.861 357.039C119.863 357.208 119.809 357.373 119.708 357.508C119.606 357.643 119.462 357.741 119.299 357.786L110.04 360.327C109.877 360.372 109.704 360.361 109.547 360.297C109.391 360.233 109.26 360.118 109.176 359.972L108.45 358.716C108.27 358.405 107.992 358.162 107.659 358.025C107.327 357.888 106.958 357.866 106.611 357.961L102.503 359.089C102.17 359.18 101.875 359.375 101.66 359.645C101.445 359.916 101.322 360.247 101.308 360.593L101.9 374.821C101.92 377.543 104.142 379.734 106.864 379.714ZM123.049 357.718C125.888 356.939 128.82 358.609 129.599 361.447C130.378 364.285 128.709 367.217 125.87 367.996C123.032 368.775 120.1 367.106 119.321 364.268C118.542 361.43 120.211 358.497 123.049 357.718ZM106.773 362.185C109.611 361.406 112.544 363.076 113.322 365.914C114.101 368.752 112.432 371.684 109.594 372.463C106.756 373.242 103.823 371.573 103.044 368.735C102.265 365.897 103.935 362.964 106.773 362.185Z" fill="#D0D5DD"/>
<path d="M109.595 372.463C112.433 371.684 114.103 368.752 113.324 365.913C112.545 363.075 109.612 361.405 106.774 362.184C103.936 362.963 102.266 365.896 103.045 368.734C103.824 371.572 106.757 373.242 109.595 372.463ZM110.293 370.307L107.895 370.965L107.486 369.476L108.435 368.238L109.884 368.818L110.293 370.307ZM111.168 365.215L111.826 367.614L110.337 368.023L109.099 367.073L109.679 365.624L111.168 365.215ZM106.076 364.34L108.475 363.682L108.883 365.171L107.933 366.409L106.485 365.829L106.076 364.34ZM104.543 367.034L106.032 366.625L107.27 367.574L106.69 369.023L105.201 369.432L104.543 367.034Z" fill="#475467"/>
<path d="M125.87 367.996C128.708 367.217 130.378 364.285 129.599 361.446C128.82 358.608 125.887 356.939 123.049 357.718C120.211 358.497 118.542 361.429 119.321 364.267C120.1 367.106 123.032 368.775 125.87 367.996ZM126.595 361.063C126.744 361.019 126.899 361.006 127.053 361.023C127.207 361.041 127.355 361.088 127.49 361.164C127.625 361.239 127.744 361.341 127.839 361.462C127.935 361.584 128.005 361.723 128.046 361.873C128.087 362.022 128.098 362.178 128.078 362.331C128.058 362.484 128.008 362.632 127.93 362.766C127.852 362.9 127.749 363.017 127.626 363.11C127.502 363.203 127.362 363.271 127.212 363.31C126.916 363.385 126.602 363.342 126.338 363.189C126.073 363.035 125.88 362.784 125.799 362.489C125.718 362.195 125.756 361.88 125.905 361.613C126.054 361.346 126.302 361.149 126.595 361.063ZM123.481 359.289C123.779 359.208 124.097 359.248 124.366 359.4C124.634 359.553 124.831 359.807 124.913 360.105C124.994 360.403 124.955 360.721 124.802 360.989C124.649 361.258 124.395 361.455 124.097 361.537C123.799 361.618 123.481 361.578 123.213 361.426C122.944 361.273 122.747 361.019 122.666 360.721C122.584 360.423 122.624 360.105 122.777 359.837C122.929 359.568 123.183 359.371 123.481 359.289ZM124.822 364.177C125.12 364.095 125.438 364.135 125.707 364.288C125.975 364.441 126.172 364.694 126.254 364.992C126.336 365.29 126.296 365.609 126.143 365.877C125.99 366.146 125.737 366.342 125.439 366.424C125.141 366.506 124.823 366.466 124.554 366.313C124.286 366.16 124.089 365.907 124.007 365.609C123.925 365.311 123.965 364.993 124.118 364.724C124.271 364.456 124.524 364.259 124.822 364.177ZM121.707 362.404C121.856 362.361 122.012 362.347 122.165 362.365C122.319 362.382 122.468 362.43 122.603 362.505C122.738 362.58 122.856 362.682 122.952 362.804C123.047 362.925 123.117 363.065 123.158 363.214C123.199 363.363 123.21 363.519 123.19 363.672C123.17 363.826 123.12 363.974 123.042 364.107C122.965 364.241 122.861 364.358 122.738 364.451C122.615 364.545 122.474 364.613 122.324 364.651C122.028 364.727 121.714 364.683 121.45 364.53C121.186 364.377 120.992 364.125 120.911 363.831C120.83 363.536 120.869 363.221 121.017 362.955C121.166 362.688 121.414 362.49 121.707 362.404Z" fill="#475467"/>
<path d="M124.098 361.537C124.396 361.456 124.649 361.259 124.802 360.99C124.955 360.722 124.995 360.403 124.913 360.105C124.831 359.807 124.634 359.554 124.366 359.401C124.097 359.248 123.779 359.208 123.481 359.29C123.183 359.372 122.93 359.569 122.777 359.837C122.624 360.106 122.584 360.424 122.666 360.722C122.748 361.02 122.944 361.273 123.213 361.426C123.481 361.579 123.8 361.619 124.098 361.537ZM125.439 366.425C125.737 366.343 125.99 366.146 126.143 365.878C126.296 365.609 126.336 365.291 126.254 364.993C126.173 364.695 125.976 364.442 125.707 364.289C125.439 364.136 125.12 364.096 124.822 364.178C124.524 364.26 124.271 364.457 124.118 364.725C123.965 364.994 123.925 365.312 124.007 365.61C124.089 365.908 124.286 366.161 124.554 366.314C124.823 366.467 125.141 366.507 125.439 366.425Z" fill="#D0D5DD"/>
<path d="M108.475 363.684L108.884 365.173L107.934 366.411L106.485 365.831L106.076 364.342L108.475 363.684Z" fill="#98A2B3"/>
<path d="M107.895 370.967L107.486 369.477L108.435 368.24L109.884 368.819L110.293 370.309L107.895 370.967Z" fill="#98A2B3"/>
<path d="M111.827 367.615L110.337 368.024L109.099 367.074L109.679 365.626L111.168 365.217L111.827 367.615Z" fill="#98A2B3"/>
<path d="M106.032 366.627L107.27 367.576L106.691 369.025L105.201 369.434L104.543 367.035L106.032 366.627Z" fill="#98A2B3"/>
<path d="M127.213 363.31C127.833 363.14 128.198 362.498 128.028 361.878C127.858 361.257 127.217 360.892 126.596 361.063C125.976 361.233 125.611 361.874 125.781 362.495C125.951 363.115 126.592 363.48 127.213 363.31Z" fill="#98A2B3"/>
<path d="M122.324 364.652C122.945 364.481 123.31 363.84 123.139 363.22C122.969 362.599 122.328 362.234 121.708 362.405C121.087 362.575 120.722 363.216 120.892 363.836C121.063 364.457 121.704 364.822 122.324 364.652Z" fill="#98A2B3"/>
</g>
<g opacity="0.25" clip-path="url(#clip3_1812_40321)">
<rect x="350.848" y="338.729" width="30.0737" height="38.2756" rx="0.738209" transform="rotate(15.287 350.848 338.729)" fill="#DAE5FE"/>
<circle cx="359.584" cy="363.79" r="11.6194" transform="rotate(15.287 359.584 363.79)" fill="#4873B1"/>
<ellipse cx="359.585" cy="363.791" rx="8.20191" ry="8.20191" transform="rotate(15.287 359.585 363.791)" fill="white"/>
<path d="M367.497 365.953C367.213 366.992 366.727 367.965 366.067 368.817C365.407 369.668 364.586 370.381 363.65 370.914C362.715 371.448 361.684 371.793 360.615 371.928C359.546 372.063 358.462 371.987 357.423 371.703C356.384 371.419 355.411 370.933 354.56 370.273C353.708 369.613 352.996 368.792 352.462 367.856C351.928 366.921 351.583 365.889 351.448 364.821C351.313 363.752 351.389 362.667 351.673 361.629L359.585 363.791L367.497 365.953Z" fill="#B5CBFD"/>
<rect x="352.104" y="341.906" width="11.6194" height="2.73397" rx="0.738209" transform="rotate(15.287 352.104 341.906)" fill="#0D428E"/>
<rect x="369.906" y="346.771" width="2.73397" height="2.73397" rx="0.738209" transform="rotate(15.287 369.906 346.771)" fill="#0D428E"/>
<rect x="373.861" y="347.853" width="2.73397" height="2.73397" rx="0.738209" transform="rotate(15.287 373.861 347.853)" fill="#0D428E"/>
</g>
<g opacity="0.2">
<path d="M319.855 350.064C319.622 349.484 319.255 348.967 318.784 348.555C318.313 348.144 317.751 347.85 317.144 347.697C315.202 347.211 314.977 347.067 314.348 347.205C291.915 352.129 293.642 351.679 293.101 352.082C289.262 355.248 290.075 354.055 290.679 366.603C296.765 367.295 295.52 367.122 296.911 367.264L300.097 381.78L321.389 377.107L318.202 362.59L323.584 359.38C322.447 356.556 319.796 349.935 319.855 350.064Z" fill="#DAE5FE"/>
<path d="M295.527 360.974L296.908 367.264L295.87 367.157L294.559 361.186C294.531 361.058 294.555 360.923 294.626 360.813C294.697 360.702 294.809 360.624 294.937 360.596C295.065 360.568 295.2 360.592 295.31 360.663C295.421 360.733 295.499 360.845 295.527 360.974ZM319.097 362.059L317.786 356.088C317.758 355.959 317.68 355.847 317.57 355.777C317.459 355.706 317.325 355.682 317.196 355.71C317.068 355.738 316.956 355.816 316.885 355.927C316.814 356.037 316.79 356.172 316.819 356.3L318.199 362.591L319.097 362.059Z" fill="#6593FD"/>
<path d="M296.287 364.418L296.912 367.264L290.68 366.603L290.518 363.726L296.287 364.418ZM323.585 359.38C318.349 362.558 319.407 361.88 318.203 362.59L317.601 359.847L322.587 356.896L323.585 359.38Z" fill="#6593FD"/>
<path d="M296.483 365.328L296.908 367.263L295.872 367.166L295.447 365.23L296.483 365.328Z" fill="#6593FD"/>
<path d="M318.677 360.132L319.102 362.068L318.202 362.59L317.777 360.654L318.677 360.132Z" fill="#6593FD"/>
<path d="M310.934 347.956C311.328 349.752 310.993 351.632 310.001 353.181C309.01 354.731 307.443 355.823 305.646 356.217C303.85 356.612 301.97 356.276 300.42 355.284C298.871 354.293 297.779 352.726 297.385 350.93L310.934 347.956Z" fill="#6593FD"/>
<path d="M309.24 348.327C309.536 349.675 309.284 351.084 308.54 352.246C307.797 353.408 306.622 354.227 305.274 354.523C303.927 354.819 302.517 354.567 301.355 353.824C300.193 353.08 299.374 351.905 299.078 350.558L309.24 348.327Z" fill="#2B4B95"/>
<rect x="299.459" y="379.307" width="21.9866" height="2.74832" transform="rotate(-12.3803 299.459 379.307)" fill="#6593FD"/>
</g>
<g opacity="0.1" clip-path="url(#clip4_1812_40321)">
<path d="M244.887 352.891C245.074 351.725 246.17 350.93 247.336 351.117L272.675 355.166C273.841 355.353 274.636 356.449 274.449 357.616L272.087 372.397C271.901 373.563 270.804 374.357 269.638 374.171L244.299 370.121C243.133 369.935 242.338 368.838 242.525 367.672L244.887 352.891Z" fill="#FFE4FE"/>
<path d="M255.783 352.467L252.615 351.961L249.578 370.965L252.745 371.471L255.783 352.467Z" fill="#FF9DC0"/>
<path d="M273.437 363.951L273.943 360.783L244.381 356.059L243.875 359.226L273.437 363.951Z" fill="#FF9DC0"/>
<path d="M252.968 359.047C252.56 359.658 252.006 360.494 250.336 361.358C249.11 361.997 247.024 362.187 246.504 360.953C246.168 360.168 246.548 358.911 247.184 358.082C247.003 357.57 246.927 356.971 246.966 356.426C247.013 355.916 247.163 355.45 247.433 355.142C248.059 354.421 249.224 354.635 250.185 355.182C250.572 355.395 250.922 355.665 251.201 355.951C252.517 357.292 252.784 358.259 252.981 358.967C252.965 358.978 252.957 359.032 252.968 359.047ZM252.968 359.047C253.165 359.755 253.431 360.722 254.748 362.063C255.714 363.052 257.637 363.884 258.516 362.872C259.08 362.231 259.111 360.919 258.765 359.933C259.096 359.503 259.355 358.958 259.488 358.427C259.602 357.928 259.605 357.439 259.444 357.062C259.075 356.182 257.9 356.022 256.817 356.242C256.383 356.324 255.966 356.471 255.612 356.656C253.943 357.52 253.389 358.356 252.981 358.967C252.992 358.982 252.983 359.036 252.968 359.047Z" fill="#FC6299"/>
<path d="M252.653 361.028C253.769 361.206 254.819 360.446 254.998 359.329C255.176 358.213 254.416 357.163 253.299 356.984C252.182 356.806 251.133 357.566 250.954 358.683C250.776 359.799 251.536 360.849 252.653 361.028Z" fill="#D83C74"/>
<rect x="262.395" y="368.683" width="7.48434" height="2.13838" rx="1.06919" transform="rotate(9.08026 262.395 368.683)" fill="#FC6299"/>
</g>
<path d="M165.19 315.535C174.374 315.535 181.819 322.981 181.819 332.164C181.819 341.347 174.374 348.792 165.19 348.792C156.007 348.792 148.563 341.347 148.562 332.164C148.563 322.981 156.007 315.535 165.19 315.535Z" fill="url(#paint1_linear_1812_40321)"/>
<path d="M166.737 328.833C166.587 329.353 166.977 329.872 167.518 329.872H172.123C172.801 329.872 173.181 330.653 172.763 331.187L162.893 343.8C162.342 344.504 161.223 343.932 161.472 343.072L163.662 335.498C163.812 334.978 163.422 334.459 162.88 334.459H158.276C157.598 334.459 157.217 333.678 157.635 333.144L167.505 320.531C168.057 319.827 169.176 320.399 168.927 321.259L166.737 328.833Z" fill="url(#paint2_linear_1812_40321)"/>
<g filter="url(#filter1_d_1812_40321)">
<path d="M203.267 313.182C208.683 318.026 212.104 328.632 210.71 337.186C209.033 347.474 205.274 347.68 205.207 351.918C205.208 352.101 205.213 352.293 205.224 352.494C205.522 358.385 214.033 359.073 215.229 353.695C215.613 351.97 215.495 350.189 215.209 348.574C221.703 355.454 225.686 364.732 225.686 374.939C225.685 396.156 208.484 413.357 187.268 413.357C166.05 413.357 148.85 396.157 148.85 374.939C148.85 366.427 151.619 358.563 156.305 352.195C156.293 352.461 156.286 352.726 156.286 352.989C156.286 356.403 157.24 358.627 159.052 359.332C160.864 360.036 163.024 358.194 163.691 355.101C164.359 352.007 166.147 347.289 171.012 342.863C171.279 342.62 171.545 342.387 171.812 342.165C180.085 335.022 188.213 336.137 196.611 328.757C203.927 322.328 203.27 313.229 203.267 313.182Z" fill="url(#paint3_radial_1812_40321)"/>
</g>
<path d="M178.157 378.33C176.145 378.33 174.514 376.699 174.514 374.686C174.514 372.674 176.145 371.043 178.157 371.043C180.17 371.043 181.801 372.674 181.801 374.686C181.801 376.699 180.17 378.33 178.157 378.33Z" fill="#162034"/>
<path d="M196.376 378.33C194.364 378.33 192.733 376.699 192.733 374.686C192.733 372.674 194.364 371.043 196.376 371.043C198.388 371.043 200.02 372.674 200.02 374.686C200.02 376.699 198.388 378.33 196.376 378.33Z" fill="#162034"/>
<path d="M182.526 389.323L180.689 388.263L182.511 385.107L184.348 386.168C187.325 387.886 191.132 386.867 192.851 383.89L193.911 382.053L197.067 383.874L196.006 385.712C193.281 390.431 187.246 392.048 182.526 389.323Z" fill="#162034"/>
<path d="M244.064 431.982V450.089H239.722V431.982H244.064ZM234.125 433.729V442.9H224.085V445.554C229.24 445.537 232.87 445.386 237.042 444.714L237.585 448.141C232.836 448.88 228.698 449.048 222.558 449.048H219.844V439.642H229.817V437.089H219.811V433.729H234.125ZM244.064 451.433V462.183H223.372V451.433H244.064ZM227.646 454.826V458.757H239.824V454.826H227.646Z" fill="white"/>
<path d="M212.34 431.948V437.861H216.512V441.388H212.34V447.233H207.998V431.948H212.34ZM212.34 448.443V456.774H196.16V458.823H213.222V462.183H191.92V453.683H208.032V451.735H191.852V448.443H212.34ZM196.363 432.855C201.112 432.889 204.64 435.711 204.64 439.776C204.64 443.807 201.112 446.696 196.363 446.696C191.614 446.696 188.053 443.807 188.053 439.776C188.053 435.711 191.614 432.889 196.363 432.855ZM196.363 436.349C193.989 436.349 192.259 437.626 192.293 439.776C192.259 441.959 193.989 443.303 196.363 443.303C198.738 443.303 200.434 441.959 200.434 439.776C200.434 437.626 198.738 436.349 196.363 436.349Z" fill="white"/>
<path d="M186.746 447.369V450.762H158.49V447.369H186.746ZM183.32 432.521V440.684H166.326V442.464H183.897V445.723H162.018V437.593H178.978V435.813H161.95V432.521H183.32ZM183.456 452.643V462.184H162.12V452.643H183.456ZM166.36 456.036V458.757H179.148V456.036H166.36Z" fill="white"/>
<path d="M141.174 440.279C141.174 445.218 143.718 450.492 148.908 452.642L146.568 456.001C142.921 454.473 140.411 451.433 139.037 447.704C137.63 451.752 135.069 455.111 131.439 456.774L128.963 453.381C134.085 451.13 136.731 445.453 136.731 440.279V438.398H130.184V434.904H147.619V438.398H141.174V440.279ZM155.048 431.948V462.519H150.672V431.948H155.048Z" fill="white"/>
<defs>
<filter id="filter0_f_1812_40321" x="-172" y="0.0332031" width="718.078" height="725.935" filterUnits="userSpaceOnUse" color-interpolation-filters="sRGB">
<feFlood flood-opacity="0" result="BackgroundImageFix"/>
<feBlend mode="normal" in="SourceGraphic" in2="BackgroundImageFix" result="shape"/>
<feGaussianBlur stdDeviation="50" result="effect1_foregroundBlur_1812_40321"/>
</filter>
<filter id="filter1_d_1812_40321" x="140.174" y="302.097" width="94.1865" height="117.526" filterUnits="userSpaceOnUse" color-interpolation-filters="sRGB">
<feFlood flood-opacity="0" result="BackgroundImageFix"/>
<feColorMatrix in="SourceAlpha" type="matrix" values="0 0 0 0 0 0 0 0 0 0 0 0 0 0 0 0 0 0 127 0" result="hardAlpha"/>
<feOffset dy="-2.4098"/>
<feGaussianBlur stdDeviation="4.33764"/>
<feComposite in2="hardAlpha" operator="out"/>
<feColorMatrix type="matrix" values="0 0 0 0 0.0666667 0 0 0 0 0.0980392 0 0 0 0 0.164706 0 0 0 0.4 0"/>
<feBlend mode="normal" in2="BackgroundImageFix" result="effect1_dropShadow_1812_40321"/>
<feBlend mode="normal" in="SourceGraphic" in2="effect1_dropShadow_1812_40321" result="shape"/>
</filter>
<linearGradient id="paint0_linear_1812_40321" x1="188.648" y1="261.519" x2="188.648" y2="471.771" gradientUnits="userSpaceOnUse">
<stop stop-color="#121B2B"/>
<stop offset="0.5" stop-color="#43FFBA"/>
<stop offset="1" stop-color="#121B2B"/>
</linearGradient>
<linearGradient id="paint1_linear_1812_40321" x1="181.819" y1="315.535" x2="148.563" y2="348.792" gradientUnits="userSpaceOnUse">
<stop stop-color="#21F0FF"/>
<stop offset="0.495192" stop-color="#009BB2"/>
<stop offset="1" stop-color="#21F0FF"/>
</linearGradient>
<linearGradient id="paint2_linear_1812_40321" x1="184.564" y1="334.405" x2="167.193" y2="352.199" gradientUnits="userSpaceOnUse">
<stop stop-color="white" stop-opacity="0.6"/>
<stop offset="0.470389" stop-color="white"/>
<stop offset="1" stop-color="white" stop-opacity="0.6"/>
</linearGradient>
<radialGradient id="paint3_radial_1812_40321" cx="0" cy="0" r="1" gradientUnits="userSpaceOnUse" gradientTransform="translate(184.018 371.195) rotate(-46.6252) scale(86.7409 88.0781)">
<stop offset="0.296239" stop-color="#4FFF38"/>
<stop offset="1" stop-color="#00C0EB"/>
</radialGradient>
<clipPath id="clip0_1812_40321">
<rect width="49.9862" height="49.9862" fill="white" transform="translate(-22 350.561) rotate(-25.5959)"/>
</clipPath>
<clipPath id="clip1_1812_40321">
<rect width="47.7503" height="47.7503" fill="white" transform="translate(49.3672 329.146) rotate(19.0874)"/>
</clipPath>
<clipPath id="clip2_1812_40321">
<rect width="35.5281" height="35.5281" fill="white" transform="translate(94.4922 352.652) rotate(-15.3467)"/>
</clipPath>
<clipPath id="clip3_1812_40321">
<rect width="43.7435" height="43.7435" fill="white" transform="translate(344.975 334.289) rotate(15.287)"/>
</clipPath>
<clipPath id="clip4_1812_40321">
<rect width="34.2141" height="34.2141" fill="white" transform="translate(244.295 343.052) rotate(9.08026)"/>
</clipPath>
</defs>
</svg>
