<svg width="133" height="176" viewBox="0 0 133 176" fill="none" xmlns="http://www.w3.org/2000/svg">
<path d="M44.4248 18.8496C53.6082 18.8498 61.0536 26.2951 61.0537 35.4785C61.0536 44.6619 53.6081 52.1062 44.4248 52.1064C35.2415 52.1062 27.797 44.6619 27.7969 35.4785C27.797 26.2951 35.2414 18.8498 44.4248 18.8496Z" fill="url(#paint0_linear_0_1)"/>
<path d="M45.9715 32.1473C45.8211 32.6674 46.2114 33.1865 46.7528 33.1865H51.3573C52.0352 33.1865 52.4156 33.9672 51.9978 34.5011L42.1277 47.1141C41.5764 47.8186 40.4574 47.2463 40.7059 46.3869L42.8959 38.8127C43.0463 38.2926 42.6561 37.7735 42.1146 37.7735H37.5101C36.8322 37.7735 36.4518 36.9928 36.8696 36.4589L46.7398 23.8459C47.2911 23.1414 48.4101 23.7137 48.1616 24.5731L45.9715 32.1473Z" fill="url(#paint1_linear_0_1)"/>
<g filter="url(#filter0_d_0_1)">
<path d="M82.501 16.4961C87.9175 21.3409 91.3381 31.9466 89.9443 40.5C88.2677 50.7885 84.5087 50.9948 84.4414 55.2324C84.4423 55.4159 84.4479 55.6078 84.458 55.8086C84.7563 61.699 93.2678 62.3875 94.4639 57.0098C94.8473 55.2844 94.7291 53.5032 94.4434 51.8887C100.937 58.7687 104.92 68.0465 104.92 78.2539C104.919 99.4707 87.7188 116.671 66.502 116.672C45.2846 116.672 28.0846 99.4711 28.084 78.2539C28.084 69.7419 30.8538 61.8775 35.5391 55.5098C35.5269 55.7754 35.5205 56.0408 35.5205 56.3037C35.5206 59.7171 36.4741 61.9418 38.2861 62.6465C40.0981 63.3505 42.2579 61.508 42.9258 58.415C43.5937 55.3216 45.3818 50.6035 50.2461 46.1777C50.5134 45.9346 50.7794 45.7015 51.0459 45.4795C59.3194 38.3369 67.4474 39.4516 75.8457 32.0713C83.1612 25.6425 82.5045 16.5437 82.501 16.4961Z" fill="url(#paint2_radial_0_1)"/>
</g>
<path d="M57.3917 81.6442C55.3795 81.6442 53.7483 80.013 53.7483 78.0008C53.7483 75.9886 55.3795 74.3574 57.3917 74.3574C59.4039 74.3574 61.0352 75.9886 61.0352 78.0008C61.0352 80.013 59.4039 81.6442 57.3917 81.6442Z" fill="#162034"/>
<path d="M75.6105 81.6443C73.5983 81.6443 71.9671 80.013 71.9671 78.0008C71.9671 75.9886 73.5983 74.3574 75.6105 74.3574C77.6227 74.3574 79.2539 75.9886 79.2539 78.0008C79.2539 80.013 77.6227 81.6443 75.6105 81.6443Z" fill="#162034"/>
<path d="M61.7604 92.6375L59.9238 91.5771L61.7456 88.4217L63.5822 89.482C66.5592 91.2008 70.3662 90.1811 72.0851 87.2042L73.1458 85.367L76.3013 87.1888L75.2406 89.026C72.5155 93.7456 66.4801 95.3624 61.7604 92.6375Z" fill="#162034"/>
<path d="M123.064 138.732V156.839H118.722V138.732H123.064ZM113.125 140.479V149.65H103.085V152.304C108.24 152.287 111.87 152.136 116.042 151.464L116.585 154.891C111.836 155.63 107.698 155.798 101.558 155.798H98.8445V146.392H108.817V143.839H98.8105V140.479H113.125ZM123.064 158.183V168.933H102.372V158.183H123.064ZM106.646 161.576V165.507H118.824V161.576H106.646Z" fill="white"/>
<path d="M91.3398 138.698V144.611H95.512V148.138H91.3398V153.983H86.998V138.698H91.3398ZM91.3398 155.193V163.524H75.1597V165.573H92.2217V168.933H70.9197V160.433H87.0319V158.485H70.8518V155.193H91.3398ZM75.3632 139.605C80.1121 139.639 83.6398 142.461 83.6398 146.526C83.6398 150.557 80.1121 153.446 75.3632 153.446C70.6144 153.446 67.0527 150.557 67.0527 146.526C67.0527 142.461 70.6144 139.639 75.3632 139.605ZM75.3632 143.099C72.9888 143.099 71.2589 144.376 71.2928 146.526C71.2589 148.709 72.9888 150.053 75.3632 150.053C77.7377 150.053 79.4337 148.709 79.4337 146.526C79.4337 144.376 77.7377 143.099 75.3632 143.099Z" fill="white"/>
<path d="M65.746 154.119V157.512H37.4902V154.119H65.746ZM62.32 139.271V147.434H45.3259V149.214H62.8967V152.473H41.018V144.343H57.9782V142.563H40.9501V139.271H62.32ZM62.4557 159.393V168.934H41.1197V159.393H62.4557ZM45.3598 162.786V165.507H58.1478V162.786H45.3598Z" fill="white"/>
<path d="M20.1743 147.029C20.1743 151.968 22.7183 157.242 27.9081 159.392L25.5676 162.751C21.9212 161.223 19.411 158.183 18.0373 154.454C16.6296 158.502 14.0686 161.861 10.4391 163.524L7.96289 160.131C13.0849 157.88 15.7307 152.203 15.7307 147.029V145.148H9.18403V141.654H26.6191V145.148H20.1743V147.029ZM34.0477 138.698V169.269H29.672V138.698H34.0477Z" fill="white"/>
<defs>
<filter id="filter0_d_0_1" x="19.4087" y="5.41101" width="94.1865" height="117.526" filterUnits="userSpaceOnUse" color-interpolation-filters="sRGB">
<feFlood flood-opacity="0" result="BackgroundImageFix"/>
<feColorMatrix in="SourceAlpha" type="matrix" values="0 0 0 0 0 0 0 0 0 0 0 0 0 0 0 0 0 0 127 0" result="hardAlpha"/>
<feOffset dy="-2.4098"/>
<feGaussianBlur stdDeviation="4.33764"/>
<feComposite in2="hardAlpha" operator="out"/>
<feColorMatrix type="matrix" values="0 0 0 0 0.0666667 0 0 0 0 0.0980392 0 0 0 0 0.164706 0 0 0 0.4 0"/>
<feBlend mode="normal" in2="BackgroundImageFix" result="effect1_dropShadow_0_1"/>
<feBlend mode="normal" in="SourceGraphic" in2="effect1_dropShadow_0_1" result="shape"/>
</filter>
<linearGradient id="paint0_linear_0_1" x1="61.0537" y1="18.8496" x2="27.7969" y2="52.1064" gradientUnits="userSpaceOnUse">
<stop stop-color="#21F0FF"/>
<stop offset="0.495192" stop-color="#009BB2"/>
<stop offset="1" stop-color="#21F0FF"/>
</linearGradient>
<linearGradient id="paint1_linear_0_1" x1="63.7986" y1="37.719" x2="46.4271" y2="55.5132" gradientUnits="userSpaceOnUse">
<stop stop-color="white" stop-opacity="0.6"/>
<stop offset="0.470389" stop-color="white"/>
<stop offset="1" stop-color="white" stop-opacity="0.6"/>
</linearGradient>
<radialGradient id="paint2_radial_0_1" cx="0" cy="0" r="1" gradientUnits="userSpaceOnUse" gradientTransform="translate(63.2526 74.509) rotate(-46.6252) scale(86.7409 88.0781)">
<stop offset="0.296239" stop-color="#4FFF38"/>
<stop offset="1" stop-color="#00C0EB"/>
</radialGradient>
</defs>
</svg>
