<svg width="28" height="28" viewBox="0 0 28 28" fill="none" xmlns="http://www.w3.org/2000/svg">
<g id="alert">
<path id="Vector" d="M6.5 20.7889V19.2889H8.3077V11.8273C8.3077 10.4825 8.72276 9.29338 9.55287 8.26005C10.383 7.22671 11.4487 6.56582 12.75 6.27737V5.6543C12.75 5.30708 12.8714 5.01195 13.1143 4.7689C13.3571 4.52583 13.6519 4.4043 13.9988 4.4043C14.3457 4.4043 14.641 4.52583 14.8846 4.7689C15.1282 5.01195 15.25 5.30708 15.25 5.6543V6.27737C16.5512 6.56582 17.6169 7.22671 18.4471 8.26005C19.2772 9.29338 19.6922 10.4825 19.6922 11.8273V19.2889H21.5V20.7889H6.5ZM13.9983 23.5965C13.5007 23.5965 13.0753 23.4195 12.7221 23.0655C12.3689 22.7115 12.1923 22.286 12.1923 21.7889H15.8077C15.8077 22.2876 15.6305 22.7136 15.2761 23.0667C14.9218 23.42 14.4959 23.5965 13.9983 23.5965ZM9.80765 19.2889H18.1923V11.8273C18.1923 10.6696 17.783 9.68151 16.9644 8.86292C16.1458 8.04432 15.1577 7.63502 14 7.63502C12.8423 7.63502 11.8541 8.04432 11.0356 8.86292C10.2169 9.68151 9.80765 10.6696 9.80765 11.8273V19.2889Z" fill="#98A2B3"/>
</g>
</svg>
