<svg width="24" height="24" viewBox="0 0 24 24" fill="none" xmlns="http://www.w3.org/2000/svg">
<g clip-path="url(#clip0_189_482)">
<rect width="24" height="24" fill="white"/>
<path d="M21.1964 6.92098C21.1964 8.9858 19.5849 10.6813 17.548 10.8044C17.4697 10.8156 17.3858 10.8156 17.3018 10.8156C17.1619 10.8156 17.022 10.81 16.8877 10.7932C16.1771 9.69645 15.0132 9.1089 13.8773 8.53255C13.8269 8.50457 13.7709 8.47659 13.7206 8.45421C13.6199 8.21359 13.5359 7.96178 13.4856 7.69878C13.4352 7.44698 13.4072 7.18957 13.4072 6.92098C13.4072 4.76663 15.1531 3.02637 17.3018 3.02637C19.4506 3.02637 21.1964 4.76663 21.1964 6.92098Z" fill="black"/>
<path d="M20.4134 22.2261C20.2903 22.5618 20.1337 22.8864 19.949 23.1997C19.7811 23.4851 19.5965 23.7537 19.395 23.9999H4.91899C4.74553 23.8488 4.58325 23.6866 4.43217 23.5131C3.39696 22.31 2.73667 20.6649 2.78144 18.6224C3.59841 12.9372 4.57206 11.9188 4.57206 11.9188C4.57206 11.9188 6.73759 16.8598 7.75041 13.6087C7.99102 12.8365 8.12532 12.1146 8.21485 11.4264C8.39391 10.0218 8.4107 8.75161 8.84716 7.40864C9.09337 6.64202 9.48507 5.85862 10.123 5.01367C10.123 5.01367 10.6602 8.71244 12.2214 9.77003C13.777 10.8332 16.4853 11.3928 17.0952 14.1571C17.7051 16.9269 18.4494 14.7166 18.4494 14.7166C18.4494 14.7166 18.7851 15.6959 19.9378 17.1228C20.447 17.7607 20.8667 19.971 20.4134 22.2261Z" fill="#9EF22E"/>
<path d="M8.21484 11.4259C8.56737 10.2117 8.67929 9.12609 8.78001 8.08528C8.80239 7.85586 8.82477 7.63203 8.84716 7.4082C8.41069 8.75117 8.39391 10.0214 8.21484 11.4259Z" fill="black"/>
<path d="M20.9898 15.1192C20.8555 14.8786 20.7212 14.638 20.5925 14.403C20.0105 13.351 19.6412 12.6963 19.3279 12.4836L19.0257 12.2766L18.9082 12.6235C18.7963 12.9481 18.5892 13.2894 18.5053 13.3174C18.5053 13.3174 18.2703 13.2167 18.0185 12.0639C17.9121 11.5883 17.7555 11.1686 17.5484 10.8049C16.7762 9.37801 15.3885 8.67295 14.1295 8.03504C13.9056 7.92312 13.693 7.81121 13.486 7.69929C13.223 7.5594 12.9823 7.41951 12.7585 7.26842C11.2365 6.22762 10.6657 2.4729 10.6657 2.43373L10.565 1.77344L10.1621 2.30503C8.58413 4.39223 8.41067 6.16047 8.22601 8.02944C8.11969 9.10941 8.00778 10.223 7.61608 11.4652C7.42582 12.0751 7.18521 12.4221 6.939 12.4333C6.31788 12.4836 5.29946 10.8273 4.78466 9.6466L4.58881 9.21013L4.30343 9.59624C4.26986 9.64101 3.39693 10.8609 2.53519 16.893C2.24422 18.9467 2.36732 20.659 2.9157 22.0523C3.1787 22.735 3.54801 23.3393 4.01246 23.8765C4.04603 23.9157 4.0852 23.9604 4.12996 23.9996H4.91896C4.74549 23.8485 4.58322 23.6862 4.43213 23.5128C3.39693 22.3097 2.90451 20.7205 2.94928 18.6781C2.96047 18.1409 3.00523 17.5757 3.08917 16.9714C3.65433 13.0152 4.2195 11.1798 4.52726 10.4132C4.9917 11.3477 5.94856 12.9928 6.92221 12.9928H6.96698C7.48178 12.9649 7.87907 12.506 8.15326 11.6331C8.17565 11.5659 8.19803 11.4932 8.21482 11.426C8.39388 10.0215 8.41066 8.75129 8.84713 7.40832C9.0094 5.98701 9.25002 4.67202 10.2293 3.18356C10.4755 4.37544 11.1302 6.83196 12.4396 7.72727C12.8201 7.99027 13.2565 8.21969 13.721 8.45471C13.7713 8.4771 13.8273 8.50508 13.8777 8.53305C15.0136 9.10941 16.1775 9.69696 16.8881 10.7937C17.1511 11.1854 17.347 11.6443 17.4701 12.1871C17.7219 13.3342 18.0296 13.8546 18.4661 13.877C18.8242 13.9049 19.0928 13.5468 19.2551 13.2279C19.4957 13.5748 19.8091 14.1456 20.1001 14.6715C20.2288 14.9122 20.3631 15.1528 20.5029 15.3934C21.0121 16.2943 21.471 19.5398 20.4134 22.2258C20.2903 22.5615 20.1336 22.8861 19.949 23.1994C19.7811 23.4848 19.5964 23.7534 19.395 23.9996H20.1001C20.2232 23.8373 20.3295 23.6639 20.4358 23.4848C22.204 20.4463 21.6221 16.2439 20.9898 15.1192Z" fill="black"/>
<path d="M10.7497 15.516C11.0278 15.516 11.2533 15.2905 11.2533 15.0124C11.2533 14.7343 11.0278 14.5088 10.7497 14.5088C10.4716 14.5088 10.2461 14.7343 10.2461 15.0124C10.2461 15.2905 10.4716 15.516 10.7497 15.516Z" fill="black"/>
<path d="M12.9763 15.516C13.2544 15.516 13.4799 15.2905 13.4799 15.0124C13.4799 14.7343 13.2544 14.5088 12.9763 14.5088C12.6981 14.5088 12.4727 14.7343 12.4727 15.0124C12.4727 15.2905 12.6981 15.516 12.9763 15.516Z" fill="black"/>
<path d="M17.3132 4.71108L15.7408 7.08366C15.7072 7.13402 15.7408 7.20117 15.8024 7.20117H17.2069C17.2517 7.20117 17.2852 7.24034 17.2796 7.28511L17.0894 8.86869C17.0782 8.94703 17.1845 8.98061 17.2237 8.91906L18.8632 6.36182C18.8968 6.31145 18.8632 6.2499 18.8017 6.2499H17.3692C17.3244 6.2499 17.2908 6.21073 17.2964 6.16597L17.4419 4.77263C17.4475 4.69429 17.3524 4.66072 17.3076 4.72227L17.3132 4.71108Z" fill="white"/>
<path d="M11.3091 18.1013C10.2794 18.1013 9.65273 17.3403 9.44569 16.8534C9.35616 16.6408 9.45129 16.3946 9.66392 16.3051C9.87656 16.2155 10.1228 16.3107 10.2123 16.5233C10.2571 16.6296 10.6935 17.5249 11.7735 17.1892C11.9973 17.1164 12.2323 17.2451 12.2995 17.4634C12.3666 17.6872 12.2435 17.9222 12.0253 17.9894C11.7679 18.0677 11.5273 18.1069 11.3035 18.1069L11.3091 18.1013Z" fill="black"/>
</g>
<defs>
<clipPath id="clip0_189_482">
<rect width="24" height="24" fill="white"/>
</clipPath>
</defs>
</svg>
