<svg width="28" height="28" viewBox="0 0 28 28" fill="none" xmlns="http://www.w3.org/2000/svg">
<path d="M13.9998 14.0003C12.7165 14.0003 11.6179 13.5434 10.704 12.6295C9.79011 11.7156 9.33317 10.617 9.33317 9.33366C9.33317 8.05033 9.79011 6.95171 10.704 6.03783C11.6179 5.12394 12.7165 4.66699 13.9998 4.66699C15.2832 4.66699 16.3818 5.12394 17.2957 6.03783C18.2096 6.95171 18.6665 8.05033 18.6665 9.33366C18.6665 10.617 18.2096 11.7156 17.2957 12.6295C16.3818 13.5434 15.2832 14.0003 13.9998 14.0003ZM4.6665 23.3337V20.067C4.6665 19.4059 4.83664 18.7982 5.17692 18.2441C5.5172 17.6899 5.96928 17.267 6.53317 16.9753C7.73873 16.3725 8.96373 15.9205 10.2082 15.6191C11.4526 15.3177 12.7165 15.167 13.9998 15.167C15.2832 15.167 16.5471 15.3177 17.7915 15.6191C19.0359 15.9205 20.2609 16.3725 21.4665 16.9753C22.0304 17.267 22.4825 17.6899 22.8228 18.2441C23.163 18.7982 23.3332 19.4059 23.3332 20.067V23.3337H4.6665Z" fill="#98A2B3"/>
</svg>
