<svg width="28" height="28" viewBox="0 0 28 28" fill="none" xmlns="http://www.w3.org/2000/svg">
<g clip-path="url(#clip0_672_1540)">
<rect width="28" height="28" fill="white"/>
<path d="M24.7295 8.07497C24.7295 10.4839 22.8493 12.462 20.473 12.6056C20.3816 12.6187 20.2837 12.6187 20.1858 12.6187C20.0226 12.6187 19.8594 12.6122 19.7027 12.5926C18.8736 11.313 17.5157 10.6275 16.1905 9.95512C16.1317 9.92248 16.0664 9.88984 16.0077 9.86373C15.8902 9.58301 15.7922 9.28924 15.7335 8.9824C15.6747 8.68863 15.6421 8.38833 15.6421 8.07497C15.6421 5.56156 17.6789 3.53125 20.1858 3.53125C22.6927 3.53125 24.7295 5.56156 24.7295 8.07497Z" fill="black"/>
<path d="M23.8154 25.9307C23.6717 26.3224 23.489 26.7011 23.2735 27.0667C23.0777 27.3996 22.8622 27.713 22.6272 28.0002H5.7385C5.53612 27.824 5.3468 27.6346 5.17054 27.4323C3.9628 26.0287 3.19246 24.1093 3.24469 21.7265C4.19782 15.0937 5.33374 13.9056 5.33374 13.9056C5.33374 13.9056 7.8602 19.6701 9.04182 15.8771C9.32254 14.9762 9.47921 14.1341 9.58367 13.3311C9.79257 11.6925 9.81216 10.2105 10.3214 8.64373C10.6086 7.74935 11.0656 6.83539 11.8098 5.84961C11.8098 5.84961 12.4365 10.1648 14.2579 11.3987C16.0728 12.6391 19.2325 13.2919 19.9441 16.5169C20.6557 19.7484 21.5239 17.1697 21.5239 17.1697C21.5239 17.1697 21.9156 18.3122 23.2605 19.9769C23.8545 20.7211 24.3442 23.2998 23.8154 25.9307Z" fill="#9EF22E"/>
<path d="M9.58398 13.3309C9.99527 11.9142 10.1258 10.6478 10.2433 9.43348C10.2695 9.16582 10.2956 8.90469 10.3217 8.64355C9.81247 10.2104 9.79289 11.6923 9.58398 13.3309Z" fill="black"/>
<path d="M24.488 17.6394C24.3313 17.3587 24.1746 17.078 24.0245 16.8038C23.3455 15.5764 22.9147 14.8126 22.5491 14.5646L22.1965 14.323L22.0595 14.7278C21.9289 15.1064 21.6873 15.5046 21.5894 15.5373C21.5894 15.5373 21.3152 15.4198 21.0215 14.0749C20.8974 13.52 20.7146 13.0304 20.4731 12.6061C19.5722 10.9413 17.9532 10.1188 16.4843 9.37453C16.2232 9.24397 15.9751 9.1134 15.7335 8.98284C15.4267 8.81963 15.146 8.65642 14.8849 8.48015C13.1092 7.26588 12.4433 2.88538 12.4433 2.83968L12.3258 2.06934L11.8557 2.68953C10.0147 5.12459 9.81236 7.18755 9.59693 9.36801C9.47289 10.628 9.34232 11.9271 8.88534 13.3764C8.66338 14.088 8.38266 14.4927 8.09542 14.5058C7.37078 14.5646 6.18263 12.6322 5.58202 11.2547L5.35353 10.7455L5.02059 11.1959C4.98142 11.2482 3.963 12.6713 2.95765 19.7089C2.61817 22.1048 2.7618 24.1024 3.40157 25.728C3.7084 26.5245 4.13927 27.2295 4.68112 27.8562C4.72029 27.9019 4.76598 27.9542 4.81821 27.9999H5.7387C5.53632 27.8236 5.347 27.6343 5.17074 27.4319C3.963 26.0283 3.38851 24.1743 3.44074 21.7914C3.4538 21.1647 3.50602 20.5053 3.60395 19.8003C4.26331 15.1847 4.92266 13.0435 5.28172 12.1491C5.82357 13.2393 6.93991 15.1586 8.07583 15.1586H8.12806C8.72866 15.126 9.19217 14.5907 9.51206 13.5723C9.53817 13.4939 9.56429 13.409 9.58387 13.3307C9.79278 11.6921 9.81236 10.2102 10.3216 8.64336C10.5109 6.98517 10.7916 5.45101 11.9341 3.71447C12.2213 5.10501 12.9851 7.97094 14.5127 9.01548C14.9567 9.32231 15.4659 9.58997 16.0077 9.86416C16.0665 9.89027 16.1318 9.92291 16.1905 9.95556C17.5158 10.628 18.8736 11.3134 19.7027 12.593C20.0096 13.05 20.2381 13.5853 20.3817 14.2186C20.6755 15.5569 21.0345 16.164 21.5437 16.1901C21.9615 16.2228 22.2749 15.8049 22.4642 15.4328C22.7449 15.8376 23.1105 16.5035 23.45 17.1171C23.6001 17.3979 23.7568 17.6786 23.92 17.9593C24.5141 19.0103 25.0494 22.7968 23.8156 25.9304C23.6719 26.3221 23.4892 26.7007 23.2737 27.0663C23.0779 27.3993 22.8624 27.7126 22.6274 27.9999H23.45C23.5936 27.8105 23.7176 27.6082 23.8417 27.3993C25.9046 23.8544 25.2257 18.9516 24.488 17.6394Z" fill="black"/>
<path d="M12.5412 18.1028C12.8657 18.1028 13.1287 17.8398 13.1287 17.5153C13.1287 17.1908 12.8657 16.9277 12.5412 16.9277C12.2167 16.9277 11.9536 17.1908 11.9536 17.5153C11.9536 17.8398 12.2167 18.1028 12.5412 18.1028Z" fill="black"/>
<path d="M15.1393 18.1028C15.4638 18.1028 15.7269 17.8398 15.7269 17.5153C15.7269 17.1908 15.4638 16.9277 15.1393 16.9277C14.8148 16.9277 14.5518 17.1908 14.5518 17.5153C14.5518 17.8398 14.8148 18.1028 15.1393 18.1028Z" fill="black"/>
<path d="M20.1986 5.49675L18.3641 8.26476C18.325 8.32352 18.3641 8.40186 18.4359 8.40186H20.0745C20.1268 8.40186 20.1659 8.44755 20.1594 8.49978L19.9374 10.3473C19.9244 10.4387 20.0484 10.4779 20.0941 10.4061L22.0069 7.42261C22.0461 7.36385 22.0069 7.29204 21.9351 7.29204H20.2639C20.2116 7.29204 20.1725 7.24634 20.179 7.19412L20.3487 5.56856C20.3553 5.47716 20.2443 5.43799 20.1921 5.50981L20.1986 5.49675Z" fill="white"/>
<path d="M13.1941 21.1191C11.9929 21.1191 11.2617 20.2313 11.0201 19.6633C10.9157 19.4153 11.0267 19.128 11.2747 19.0236C11.5228 18.9191 11.8101 19.0301 11.9145 19.2782C11.9667 19.4022 12.4759 20.4467 13.7359 20.055C13.997 19.9702 14.2712 20.1203 14.3496 20.3749C14.4279 20.6361 14.2843 20.9102 14.0297 20.9886C13.7294 21.08 13.4487 21.1257 13.1875 21.1257L13.1941 21.1191Z" fill="black"/>
</g>
<defs>
<clipPath id="clip0_672_1540">
<rect width="28" height="28" fill="white"/>
</clipPath>
</defs>
</svg>
