<svg width="20" height="26" viewBox="0 0 20 26" fill="none" xmlns="http://www.w3.org/2000/svg">
<g clip-path="url(#clip0_651_24500)">
<path d="M19.3636 9.0225C19.2211 9.135 16.7052 10.5775 16.7052 13.785C16.7052 17.495 19.9066 18.8075 20.0025 18.84C19.9877 18.92 19.4939 20.6375 18.3145 22.3875C17.2629 23.9275 16.1646 25.465 14.4939 25.465C12.8231 25.465 12.3931 24.4775 10.4644 24.4775C8.58477 24.4775 7.91646 25.4975 6.38821 25.4975C4.85995 25.4975 3.79361 24.0725 2.56757 22.3225C1.14742 20.2675 0 17.075 0 14.045C0 9.185 3.10565 6.6075 6.16216 6.6075C7.78624 6.6075 9.14005 7.6925 10.1597 7.6925C11.1302 7.6925 12.6437 6.5425 14.4914 6.5425C15.1916 6.5425 17.7076 6.6075 19.3636 9.0225ZM13.6143 4.485C14.3784 3.5625 14.9189 2.2825 14.9189 1.0025C14.9189 0.825 14.9042 0.645 14.8722 0.5C13.629 0.5475 12.1499 1.3425 11.258 2.395C10.5577 3.205 9.90418 4.485 9.90418 5.7825C9.90418 5.9775 9.93612 6.1725 9.95086 6.235C10.0295 6.25 10.1572 6.2675 10.285 6.2675C11.4005 6.2675 12.8034 5.5075 13.6143 4.485Z" fill="#D0D5DD"/>
</g>
<defs>
<clipPath id="clip0_651_24500">
<rect width="20" height="25" fill="white" transform="translate(0 0.5)"/>
</clipPath>
</defs>
</svg>
