<svg width="30" height="31" viewBox="0 0 30 31" fill="none" xmlns="http://www.w3.org/2000/svg">
<mask id="mask0_658_25994" style="mask-type:luminance" maskUnits="userSpaceOnUse" x="0" y="0" width="30" height="31">
<path d="M0 0.500002H30V30.5H0V0.500002Z" fill="white"/>
</mask>
<g mask="url(#mask0_658_25994)">
<path d="M14.8875 5.14359C8.4908 5.14359 3.30566 9.24261 3.30566 14.2997C3.30566 17.5911 5.50268 20.4756 8.80004 22.0895C8.55782 22.9941 7.92296 25.3662 7.79546 25.8736C7.63874 26.5035 8.02658 26.495 8.2805 26.3254C8.47958 26.1928 11.4543 24.1709 12.7377 23.298C13.4341 23.4011 14.1527 23.456 14.8875 23.456C21.284 23.456 26.4694 19.356 26.4694 14.2997C26.4694 9.24261 21.284 5.14359 14.8875 5.14359Z" fill="#391B1B"/>
<path d="M10.2268 11.6027H6.83985C6.52155 11.6027 6.26367 11.8606 6.26367 12.1786C6.26367 12.4969 6.52155 12.7548 6.83985 12.7548H7.94085V16.8121C7.94085 16.9595 8.00097 17.1046 8.10663 17.2097C8.20995 17.314 8.35461 17.374 8.50269 17.374H8.62575C8.77323 17.374 8.91735 17.314 9.02103 17.2099C9.12639 17.1048 9.18675 16.9606 9.18675 16.8121V12.7548H10.2268C10.5454 12.7548 10.8033 12.4969 10.8033 12.1786C10.8033 11.8606 10.5454 11.6027 10.2268 11.6027Z" fill="#FAE300"/>
<path d="M18.3665 16.291H16.7917V12.1472C16.7917 11.8016 16.512 11.5218 16.1669 11.5218C15.8217 11.5218 15.542 11.8016 15.542 12.1472V16.6137C15.542 16.6484 15.5463 16.6809 15.5517 16.7138C15.5455 16.746 15.542 16.7799 15.542 16.8134C15.542 17.1026 15.7752 17.3369 16.0647 17.3369H18.3665C18.656 17.3369 18.8892 17.1026 18.8892 16.8134C18.8892 16.5253 18.656 16.291 18.3665 16.291Z" fill="#FAE300"/>
<path d="M23.3992 16.4807L21.644 14.1756L23.2298 12.5892C23.4446 12.3748 23.4446 12.0262 23.23 11.8115C23.0155 11.5969 22.6671 11.5969 22.4517 11.8115L20.4886 13.7746V12.1469C20.4886 11.8014 20.209 11.5216 19.8638 11.5216C19.5185 11.5216 19.2388 11.8014 19.2388 12.1469V16.7506C19.2388 17.0965 19.5185 17.3757 19.8638 17.3757C20.209 17.3757 20.4886 17.0965 20.4886 16.7506V15.3302L20.8454 14.9737L22.5056 17.1523C22.6904 17.3992 23.0416 17.4498 23.288 17.2636C23.5348 17.0782 23.5845 16.7275 23.3992 16.4807Z" fill="#FAE300"/>
<path d="M11.7872 15.1353L12.5634 12.9204C12.5721 12.9204 12.5797 12.9228 12.5884 12.9228L13.3641 15.1353H11.7872ZM15.0742 16.6303L13.3863 12.0128C13.3863 12.0128 13.3823 12.0091 13.3807 12.0076C13.2724 11.7264 12.9613 11.5214 12.5898 11.5214C12.1777 11.5214 11.8369 11.7731 11.7692 12.1027C11.7577 12.1272 11.7462 12.1518 11.7369 12.1785L10.0772 16.6303C9.97471 16.9225 10.1283 17.2419 10.4193 17.3442C10.7109 17.4468 11.031 17.2929 11.1334 17.0015L11.4206 16.1816H13.7308L14.0178 17.0015C14.1204 17.2929 14.44 17.4468 14.7316 17.3442C15.0229 17.2419 15.1767 16.9225 15.0742 16.6303Z" fill="#FAE300"/>
</g>
</svg>
