<svg width="32" height="32" viewBox="0 0 32 32" fill="none" xmlns="http://www.w3.org/2000/svg">
<g clip-path="url(#clip0_651_23606)">
<rect width="32" height="32" rx="16" fill="white"/>
<path d="M28.2621 9.2292C28.2621 11.9823 26.1133 14.243 23.3975 14.4071C23.2931 14.422 23.1812 14.422 23.0693 14.422C22.8827 14.422 22.6962 14.4146 22.5172 14.3922C21.5696 12.9298 20.0177 12.1464 18.5032 11.3779C18.436 11.3406 18.3614 11.3033 18.2943 11.2735C18.16 10.9527 18.0481 10.6169 17.9809 10.2663C17.9138 9.93052 17.8765 9.58732 17.8765 9.2292C17.8765 6.35673 20.2043 4.03638 23.0693 4.03638C25.9343 4.03638 28.2621 6.35673 28.2621 9.2292Z" fill="black"/>
<path d="M27.2178 29.6349C27.0536 30.0825 26.8447 30.5153 26.5985 30.9331C26.3747 31.3136 26.1285 31.6717 25.8599 32H6.55849C6.3272 31.7985 6.11084 31.5822 5.90939 31.3509C4.52912 29.7468 3.64874 27.5533 3.70842 24.83C4.79772 17.2497 6.09592 15.8918 6.09592 15.8918C6.09592 15.8918 8.98329 22.4798 10.3337 18.145C10.6545 17.1154 10.8336 16.1529 10.953 15.2352C11.1917 13.3625 11.2141 11.6689 11.7961 9.87828C12.1243 8.85613 12.6466 7.8116 13.4971 6.685C13.4971 6.685 14.2134 11.6167 16.295 13.0268C18.3691 14.4444 21.9802 15.1905 22.7934 18.8762C23.6067 22.5694 24.599 19.6223 24.599 19.6223C24.599 19.6223 25.0466 20.9279 26.5836 22.8305C27.2625 23.681 27.8221 26.6281 27.2178 29.6349Z" fill="#9EF22E"/>
<path d="M10.9526 15.2353C11.4227 13.6162 11.5719 12.1688 11.7062 10.7811C11.736 10.4752 11.7659 10.1767 11.7957 9.8783C11.2138 11.6689 11.1914 13.3626 10.9526 15.2353Z" fill="black"/>
<path d="M27.9862 20.1595C27.8071 19.8387 27.6281 19.5179 27.4565 19.2045C26.6805 17.8019 26.1881 16.9289 25.7703 16.6454L25.3674 16.3694L25.2107 16.8319C25.0615 17.2647 24.7855 17.7198 24.6735 17.7571C24.6735 17.7571 24.3602 17.6228 24.0244 16.0859C23.8827 15.4517 23.6738 14.8921 23.3977 14.4071C22.3681 12.5046 20.5178 11.5645 18.8391 10.714C18.5407 10.5648 18.2572 10.4155 17.9811 10.2663C17.6304 10.0798 17.3096 9.89327 17.0112 9.69182C14.9818 8.30409 14.2208 3.29779 14.2208 3.24556L14.0865 2.36517L13.5493 3.07396C11.4453 5.8569 11.2141 8.21456 10.9678 10.7065C10.8261 12.1465 10.6769 13.6312 10.1546 15.2875C9.90094 16.1008 9.58012 16.5634 9.25184 16.5783C8.42367 16.6454 7.06579 14.437 6.37938 12.8627L6.11825 12.2808L5.73775 12.7956C5.69298 12.8553 4.52908 14.4818 3.3801 22.5247C2.99213 25.2628 3.15627 27.5459 3.88744 29.4036C4.2381 30.3139 4.73052 31.1197 5.34978 31.8359C5.39454 31.8881 5.44677 31.9478 5.50646 32.0001H6.55845C6.32716 31.7986 6.11079 31.5822 5.90935 31.3509C4.52908 29.7468 3.87252 27.6279 3.9322 24.9047C3.94713 24.1884 4.00681 23.4349 4.11873 22.6291C4.87228 17.3542 5.62583 14.907 6.03618 13.8849C6.65544 15.1309 7.93125 17.3244 9.22945 17.3244H9.28914C9.97555 17.2871 10.5053 16.6753 10.8709 15.5114C10.9007 15.4218 10.9305 15.3248 10.9529 15.2353C11.1917 13.3626 11.2141 11.669 11.796 9.87835C12.0124 7.98327 12.3332 6.22994 13.6389 4.24533C13.9671 5.83451 14.8401 9.10987 16.5859 10.3036C17.0933 10.6543 17.6752 10.9602 18.2945 11.2735C18.3616 11.3034 18.4362 11.3407 18.5034 11.378C20.0179 12.1465 21.5698 12.9299 22.5173 14.3922C22.868 14.9145 23.1291 15.5263 23.2933 16.25C23.629 17.7795 24.0394 18.4734 24.6213 18.5032C25.0988 18.5405 25.4569 18.063 25.6733 17.6377C25.9941 18.1003 26.4119 18.8613 26.7999 19.5627C26.9715 19.8835 27.1506 20.2043 27.3371 20.5251C28.016 21.7263 28.6278 26.0537 27.2177 29.6349C27.0536 30.0826 26.8447 30.5153 26.5985 30.9331C26.3746 31.3136 26.1284 31.6718 25.8598 32.0001H26.7999C26.964 31.7837 27.1058 31.5524 27.2476 31.3136C29.6052 27.2624 28.8293 21.6592 27.9862 20.1595Z" fill="black"/>
<path d="M14.3326 20.689C14.7035 20.689 15.0041 20.3884 15.0041 20.0176C15.0041 19.6467 14.7035 19.3461 14.3326 19.3461C13.9618 19.3461 13.6611 19.6467 13.6611 20.0176C13.6611 20.3884 13.9618 20.689 14.3326 20.689Z" fill="black"/>
<path d="M17.3019 20.689C17.6727 20.689 17.9733 20.3884 17.9733 20.0176C17.9733 19.6467 17.6727 19.3461 17.3019 19.3461C16.931 19.3461 16.6304 19.6467 16.6304 20.0176C16.6304 20.3884 16.931 20.689 17.3019 20.689Z" fill="black"/>
<path d="M23.084 6.28199L20.9874 9.44543C20.9427 9.51258 20.9874 9.60211 21.0695 9.60211H22.9422C23.0019 9.60211 23.0466 9.65434 23.0392 9.71403L22.7855 11.8255C22.7706 11.9299 22.9124 11.9747 22.9646 11.8926L25.1506 8.48297C25.1954 8.41582 25.1506 8.33375 25.0686 8.33375H23.1586C23.0989 8.33375 23.0541 8.28153 23.0616 8.22184L23.2556 6.36406C23.263 6.25961 23.1362 6.21484 23.0765 6.29691L23.084 6.28199Z" fill="white"/>
<path d="M15.0786 24.1362C13.7058 24.1362 12.8701 23.1215 12.5941 22.4724C12.4747 22.1888 12.6016 21.8606 12.8851 21.7412C13.1686 21.6218 13.4969 21.7487 13.6162 22.0322C13.6759 22.1739 14.2579 23.3677 15.6978 22.92C15.9963 22.823 16.3096 22.9946 16.3992 23.2856C16.4887 23.584 16.3246 23.8974 16.0336 23.9869C15.6904 24.0914 15.3696 24.1436 15.0711 24.1436L15.0786 24.1362Z" fill="black"/>
</g>
<defs>
<clipPath id="clip0_651_23606">
<rect width="32" height="32" rx="16" fill="white"/>
</clipPath>
</defs>
</svg>
