<svg width="121" height="120" viewBox="0 0 121 120" fill="none" xmlns="http://www.w3.org/2000/svg">
<rect width="120" height="120" transform="translate(0.5)" fill="white"/>
<path fill-rule="evenodd" clip-rule="evenodd" d="M60.5 15C56.0817 15 52.5 18.5817 52.5 23V23.1175C40.3744 26.5901 31.5 37.7587 31.5 51V70.0619C27.5537 70.554 24.5 73.9204 24.5 78V85H31.5H89.5H96.5V78C96.5 73.9204 93.4463 70.554 89.5 70.0619V51C89.5 37.7587 80.6256 26.5901 68.5 23.1175V23C68.5 18.5817 64.9183 15 60.5 15Z" fill="#D0D5DD"/>
<path d="M74.5 91C74.5 98.732 68.232 105 60.5 105C52.768 105 46.5 98.732 46.5 91L74.5 91Z" fill="#667085"/>
</svg>
