<svg width="29" height="28" viewBox="0 0 29 28" fill="none" xmlns="http://www.w3.org/2000/svg">
<path d="M11.8532 23C12.5584 23.6224 13.4846 24 14.499 24C15.5135 24 16.4397 23.6224 17.1449 23M20.499 10C20.499 8.4087 19.8669 6.88258 18.7417 5.75736C17.6165 4.63214 16.0903 4 14.499 4C12.9077 4 11.3816 4.63214 10.2564 5.75736C9.13118 6.88258 8.49904 8.4087 8.49904 10C8.49904 13.0902 7.71951 15.206 6.84871 16.6054C6.11417 17.7859 5.7469 18.3761 5.76037 18.5408C5.77528 18.7231 5.8139 18.7926 5.96082 18.9016C6.0935 19 6.69163 19 7.8879 19H21.1102C22.3065 19 22.9046 19 23.0373 18.9016C23.1842 18.7926 23.2228 18.7231 23.2377 18.5408C23.2512 18.3761 22.8839 17.7859 22.1494 16.6054C21.2786 15.206 20.499 13.0902 20.499 10Z" stroke="#101828" stroke-width="1.5" stroke-linecap="square" stroke-linejoin="round"/>
</svg>
