<svg width="24" height="24" viewBox="0 0 24 24" fill="none" xmlns="http://www.w3.org/2000/svg">
<path d="M8.96841 15.919L12 12.8874L15.0316 15.919L15.919 15.0316L12.8874 12L15.919 8.96841L15.0316 8.08098L12 11.1126L8.96841 8.08098L8.08098 8.96841L11.1126 12L8.08098 15.0316L8.96841 15.919ZM12.0014 20C10.8949 20 9.85491 19.79 8.88132 19.3701C7.90772 18.9502 7.06082 18.3803 6.34064 17.6604C5.62044 16.9405 5.05028 16.094 4.63017 15.1209C4.21006 14.1477 4 13.1079 4 12.0014C4 10.8949 4.20997 9.85491 4.6299 8.88132C5.04983 7.90772 5.61972 7.06082 6.33959 6.34064C7.05946 5.62044 7.90598 5.05028 8.87915 4.63017C9.8523 4.21006 10.8921 4 11.9986 4C13.1051 4 14.1451 4.20997 15.1187 4.6299C16.0923 5.04983 16.9392 5.61972 17.6594 6.33959C18.3796 7.05946 18.9497 7.90598 19.3698 8.87915C19.7899 9.8523 20 10.8921 20 11.9986C20 13.1051 19.79 14.1451 19.3701 15.1187C18.9502 16.0923 18.3803 16.9392 17.6604 17.6594C16.9405 18.3796 16.094 18.9497 15.1209 19.3698C14.1477 19.7899 13.1079 20 12.0014 20Z" fill="#D0D5DD"/>
</svg>
