<svg width="28" height="28" viewBox="0 0 28 28" fill="none" xmlns="http://www.w3.org/2000/svg">
<path d="M14.0027 18.173C15.3246 18.173 16.4474 17.7103 17.371 16.785C18.2946 15.8596 18.7564 14.7359 18.7564 13.414C18.7564 12.0921 18.2937 10.9693 17.3683 10.0457C16.443 9.12206 15.3193 8.66026 13.9974 8.66026C12.6754 8.66026 11.5527 9.12293 10.629 10.0483C9.70543 10.9737 9.24362 12.0973 9.24362 13.4193C9.24362 14.7412 9.7063 15.864 10.6317 16.7876C11.557 17.7112 12.6807 18.173 14.0027 18.173ZM14 16.5666C13.125 16.5666 12.3813 16.2604 11.7688 15.6479C11.1563 15.0354 10.85 14.2916 10.85 13.4166C10.85 12.5416 11.1563 11.7979 11.7688 11.1854C12.3813 10.5729 13.125 10.2666 14 10.2666C14.875 10.2666 15.6188 10.5729 16.2313 11.1854C16.8438 11.7979 17.15 12.5416 17.15 13.4166C17.15 14.2916 16.8438 15.0354 16.2313 15.6479C15.6188 16.2604 14.875 16.5666 14 16.5666ZM14.0016 21.5833C11.3187 21.5833 8.87418 20.8433 6.66797 19.3633C4.46179 17.8832 2.83744 15.901 1.79492 13.4166C2.83744 10.9322 4.46126 8.95004 6.6664 7.47002C8.87151 5.99001 11.3155 5.25 13.9984 5.25C16.6813 5.25 19.1258 5.99001 21.332 7.47002C23.5382 8.95004 25.1626 10.9322 26.2051 13.4166C25.1626 15.901 23.5388 17.8832 21.3336 19.3633C19.1285 20.8433 16.6845 21.5833 14.0016 21.5833ZM14 19.8333C16.1972 19.8333 18.2146 19.2548 20.0521 18.0979C21.8896 16.9409 23.2945 15.3805 24.2667 13.4166C23.2945 11.4527 21.8896 9.89233 20.0521 8.73539C18.2146 7.57844 16.1972 6.99997 14 6.99997C11.8028 6.99997 9.78542 7.57844 7.94792 8.73539C6.11042 9.89233 4.70556 11.4527 3.73334 13.4166C4.70556 15.3805 6.11042 16.9409 7.94792 18.0979C9.78542 19.2548 11.8028 19.8333 14 19.8333Z" fill="#101828"/>
</svg>
