<svg width="28" height="28" viewBox="0 0 28 28" fill="none" xmlns="http://www.w3.org/2000/svg">
<path d="M18.4019 15.1351L17.0917 13.8249C17.2667 12.8587 16.9911 11.99 16.2649 11.219C15.5387 10.4479 14.6476 10.1499 13.5917 10.3249L12.2814 9.01468C12.5447 8.89652 12.8147 8.8079 13.0914 8.74883C13.3681 8.68974 13.6709 8.66019 14 8.66019C15.3237 8.66019 16.4474 9.122 17.371 10.0456C18.2946 10.9692 18.7564 12.0929 18.7564 13.4166C18.7564 13.7456 18.7268 14.0523 18.6678 14.3364C18.6087 14.6206 18.5201 14.8868 18.4019 15.1351ZM22.1128 18.7653L20.825 17.5582C21.5639 16.9944 22.2201 16.377 22.7938 15.7062C23.3674 15.0353 23.8583 14.2721 24.2667 13.4166C23.2945 11.4527 21.8993 9.89227 20.0813 8.73532C18.2632 7.57838 16.2361 6.99991 14 6.99991C13.4361 6.99991 12.882 7.0388 12.3375 7.11657C11.7931 7.19435 11.2583 7.31102 10.7333 7.46657L9.37376 6.107C10.1112 5.81383 10.8642 5.5977 11.633 5.4586C12.4018 5.31949 13.1908 5.24994 14 5.24994C16.7342 5.24994 19.1999 6.00378 21.3971 7.51146C23.5943 9.01916 25.197 10.9875 26.2051 13.4166C25.7728 14.4591 25.2145 15.432 24.5303 16.3355C23.846 17.2389 23.0401 18.0488 22.1128 18.7653ZM23.0551 25.5139L18.3346 20.8293C17.7364 21.0507 17.0734 21.2317 16.3457 21.3723C15.618 21.5129 14.8361 21.5832 14 21.5832C11.2584 21.5832 8.79267 20.8294 6.60293 19.3217C4.41319 17.814 2.81052 15.8456 1.79492 13.4166C2.22569 12.386 2.78211 11.4246 3.46416 10.5324C4.14621 9.64024 4.89707 8.86658 5.71673 8.21146L2.48594 4.9448L3.71543 3.71533L24.2846 24.2845L23.0551 25.5139ZM6.94619 9.44089C6.32996 9.9315 5.73055 10.5212 5.14795 11.21C4.56536 11.8988 4.09382 12.6343 3.73334 13.4166C4.70556 15.3805 6.1007 16.9409 7.91876 18.0978C9.73681 19.2548 11.7639 19.8332 14 19.8332C14.531 19.8332 15.0597 19.7884 15.5863 19.6986C16.1128 19.6089 16.5592 19.5161 16.9257 19.4204L15.4494 17.9082C15.2504 17.989 15.0201 18.0533 14.7583 18.1011C14.4966 18.149 14.2438 18.173 14 18.173C12.6763 18.173 11.5527 17.7112 10.629 16.7875C9.70543 15.8639 9.24362 14.7403 9.24362 13.4166C9.24362 13.1802 9.26756 12.9331 9.31543 12.6751C9.3633 12.417 9.42762 12.1811 9.50837 11.9672L6.94619 9.44089Z" fill="#101828"/>
</svg>
