<svg width="28" height="28" viewBox="0 0 28 28" fill="none" xmlns="http://www.w3.org/2000/svg">
<g id="filter">
<path id="Vector" fill-rule="evenodd" clip-rule="evenodd" d="M10.823 11.3735C11.531 11.3735 12.105 10.7996 12.105 10.0916C12.105 9.38353 11.531 8.80957 10.823 8.80957C10.115 8.80957 9.54102 9.38353 9.54102 10.0916C9.54102 10.7996 10.115 11.3735 10.823 11.3735ZM10.823 12.8735C12.0995 12.8735 13.1752 12.0138 13.5026 10.8418H22.5V9.3418H13.5028C13.1755 8.16954 12.0997 7.30957 10.823 7.30957C9.54632 7.30957 8.47051 8.16954 8.14322 9.3418H5.5V10.8418H8.14335C8.4708 12.0138 9.5465 12.8735 10.823 12.8735ZM20.2142 18.6582C19.8869 19.8305 18.8111 20.6904 17.5344 20.6904C16.2577 20.6904 15.1819 19.8305 14.8546 18.6582H5.5V17.1582H14.8548C15.1822 15.9862 16.2579 15.1265 17.5344 15.1265C18.8109 15.1265 19.8866 15.9862 20.2141 17.1582H22.5V18.6582H20.2142ZM18.8164 17.9084C18.8164 18.6165 18.2424 19.1904 17.5344 19.1904C16.8264 19.1904 16.2524 18.6165 16.2524 17.9084C16.2524 17.2004 16.8264 16.6265 17.5344 16.6265C18.2424 16.6265 18.8164 17.2004 18.8164 17.9084Z" fill="#101828"/>
</g>
</svg>
