<svg width="24" height="24" viewBox="0 0 24 24" fill="none" xmlns="http://www.w3.org/2000/svg">
<path d="M3.45761 21C3.15252 20.8594 3 20.5078 3 20.1562C3 20.0859 3 19.9453 3 19.875C3 14.6719 3 9.46872 3 4.33591C3 4.05465 3.07626 3.84374 3.15252 3.56249C3.22883 3.42184 3.38135 3.28123 3.53392 3.14062C6.81353 6.16404 10.0169 9.18746 13.2202 12.2109C9.94063 15.0234 6.73727 17.9765 3.45761 21Z" fill="black"/>
<path d="M16.4235 9.11718C15.5082 9.96095 14.5167 10.8047 13.6015 11.7187C10.5506 8.83593 7.42353 5.95312 4.3727 3.0703C4.3727 3.0703 4.3727 3 4.44896 3C8.41506 5.03905 12.3811 7.07813 16.4235 9.11718Z" fill="black"/>
<path d="M4.3727 21C7.42353 18.1875 10.5506 15.375 13.6015 12.5625C14.4404 13.3359 15.3557 14.1094 16.3472 14.9531C12.3811 16.9922 8.41506 19.0312 4.44896 21H4.3727Z" fill="black"/>
<path d="M16.8814 14.6719C15.8899 13.8281 14.9746 12.9844 13.9831 12.1406C14.9746 11.2266 15.9662 10.3125 16.9577 9.39844C17.2627 9.53904 17.5678 9.67969 17.8729 9.8906C18.6356 10.3125 19.4746 10.6641 20.2373 11.0859C20.4661 11.1562 20.6187 11.2969 20.7712 11.5078C21.0763 11.8593 21.0763 12.2109 20.7712 12.5625C20.6187 12.7031 20.4661 12.8438 20.2373 12.9141C19.1695 13.5469 18.0255 14.1094 16.8814 14.6719Z" fill="black"/>
</svg>
