<svg width="28" height="28" viewBox="0 0 28 28" fill="none" xmlns="http://www.w3.org/2000/svg">
<path d="M10 20H18M13.0177 5.49715L6.23539 10.7723C5.78202 11.1249 5.55534 11.3012 5.39203 11.522C5.24737 11.7176 5.1396 11.9379 5.07403 12.1722C5 12.4367 5 12.7238 5 13.2982V20.5331C5 21.6532 5 22.2133 5.21799 22.6411C5.40973 23.0174 5.71569 23.3234 6.09202 23.5151C6.51984 23.7331 7.07989 23.7331 8.2 23.7331H19.8C20.9201 23.7331 21.4802 23.7331 21.908 23.5151C22.2843 23.3234 22.5903 23.0174 22.782 22.6411C23 22.2133 23 21.6532 23 20.5331V13.2982C23 12.7238 23 12.4367 22.926 12.1722C22.8604 11.9379 22.7526 11.7176 22.608 11.522C22.4447 11.3012 22.218 11.1249 21.7646 10.7723L14.9823 5.49715C14.631 5.2239 14.4553 5.08727 14.2613 5.03476C14.0902 4.98841 13.9098 4.98841 13.7387 5.03476C13.5447 5.08727 13.369 5.2239 13.0177 5.49715Z" stroke="#101828" stroke-width="1.5" stroke-linecap="square" stroke-linejoin="round"/>
</svg>
