<svg width="80" height="80" viewBox="0 0 80 80" fill="none" xmlns="http://www.w3.org/2000/svg">
<path d="M54.4203 72.1751C54.4953 72.7251 54.0578 73.2125 53.5078 73.2125H42.6078C42.1078 73.2125 41.6953 72.8125 41.6953 72.3V61.7501H42.0328C42.8578 61.7501 43.7078 61.7375 44.5828 61.7C44.6953 61.7 44.8078 61.6875 44.9078 61.675L45.6828 67.9875C45.7203 68.275 45.9703 68.5 46.2703 68.5H50.7203C50.7203 68.5 53.9078 68.5001 54.4203 72.1751Z" fill="#E4E7EC"/>
<path d="M39.5076 61.6875V72.3C39.5076 72.8125 39.0951 73.2125 38.5951 73.2125H27.6951C27.1451 73.2125 26.7201 72.725 26.7951 72.175C27.2951 68.5 30.4951 68.5 30.4951 68.5H34.9326C35.2326 68.5 35.4826 68.275 35.5201 67.9875L36.3326 61.4375C37.3451 61.5625 38.3951 61.65 39.5076 61.6875Z" fill="#E4E7EC"/>
<mask id="path-3-outside-1_663_3485" maskUnits="userSpaceOnUse" x="41.3073" y="33.675" width="4" height="4" fill="black">
<rect fill="white" x="41.3073" y="33.675" width="4" height="4"/>
<path d="M43.4323 36.9251C44.0536 36.9251 44.5573 36.4214 44.5573 35.8C44.5573 35.1787 44.0536 34.675 43.4323 34.675C42.8109 34.675 42.3073 35.1787 42.3073 35.8C42.3073 36.4214 42.8109 36.9251 43.4323 36.9251Z"/>
</mask>
<path d="M43.4323 36.9251C44.0536 36.9251 44.5573 36.4214 44.5573 35.8C44.5573 35.1787 44.0536 34.675 43.4323 34.675C42.8109 34.675 42.3073 35.1787 42.3073 35.8C42.3073 36.4214 42.8109 36.9251 43.4323 36.9251Z" fill="#E4E7EC"/>
<path d="M43.4323 36.9251C44.0536 36.9251 44.5573 36.4214 44.5573 35.8C44.5573 35.1787 44.0536 34.675 43.4323 34.675C42.8109 34.675 42.3073 35.1787 42.3073 35.8C42.3073 36.4214 42.8109 36.9251 43.4323 36.9251Z" stroke="#E4E7EC" stroke-width="0.4" mask="url(#path-3-outside-1_663_3485)"/>
<mask id="path-4-outside-2_663_3485" maskUnits="userSpaceOnUse" x="36.3333" y="33.675" width="4" height="4" fill="black">
<rect fill="white" x="36.3333" y="33.675" width="4" height="4"/>
<path d="M38.4583 36.9251C39.0796 36.9251 39.5833 36.4214 39.5833 35.8C39.5833 35.1787 39.0796 34.675 38.4583 34.675C37.8369 34.675 37.3333 35.1787 37.3333 35.8C37.3333 36.4214 37.8369 36.9251 38.4583 36.9251Z"/>
</mask>
<path d="M38.4583 36.9251C39.0796 36.9251 39.5833 36.4214 39.5833 35.8C39.5833 35.1787 39.0796 34.675 38.4583 34.675C37.8369 34.675 37.3333 35.1787 37.3333 35.8C37.3333 36.4214 37.8369 36.9251 38.4583 36.9251Z" fill="#E4E7EC"/>
<path d="M38.4583 36.9251C39.0796 36.9251 39.5833 36.4214 39.5833 35.8C39.5833 35.1787 39.0796 34.675 38.4583 34.675C37.8369 34.675 37.3333 35.1787 37.3333 35.8C37.3333 36.4214 37.8369 36.9251 38.4583 36.9251Z" stroke="#E4E7EC" stroke-width="0.4" mask="url(#path-4-outside-2_663_3485)"/>
<mask id="path-5-outside-3_663_3485" maskUnits="userSpaceOnUse" x="34.4713" y="37.6125" width="8" height="6" fill="black">
<rect fill="white" x="34.4713" y="37.6125" width="8" height="6"/>
<path d="M39.7088 42.7001C37.4088 42.7001 36.0088 41.0001 35.5463 39.9126C35.3463 39.4376 35.5588 38.8876 36.0338 38.6876C36.5088 38.4876 37.0588 38.7001 37.2588 39.1751C37.3588 39.4126 38.3338 41.4126 40.7463 40.6626C41.2463 40.5001 41.7713 40.7876 41.9213 41.2751C42.0713 41.7751 41.7963 42.3001 41.3088 42.4501C40.7338 42.6251 40.1963 42.7126 39.6963 42.7126L39.7088 42.7001Z"/>
</mask>
<path d="M39.7088 42.7001C37.4088 42.7001 36.0088 41.0001 35.5463 39.9126C35.3463 39.4376 35.5588 38.8876 36.0338 38.6876C36.5088 38.4876 37.0588 38.7001 37.2588 39.1751C37.3588 39.4126 38.3338 41.4126 40.7463 40.6626C41.2463 40.5001 41.7713 40.7876 41.9213 41.2751C42.0713 41.7751 41.7963 42.3001 41.3088 42.4501C40.7338 42.6251 40.1963 42.7126 39.6963 42.7126L39.7088 42.7001Z" fill="#E4E7EC"/>
<path d="M39.7088 42.7001C37.4088 42.7001 36.0088 41.0001 35.5463 39.9126C35.3463 39.4376 35.5588 38.8876 36.0338 38.6876C36.5088 38.4876 37.0588 38.7001 37.2588 39.1751C37.3588 39.4126 38.3338 41.4126 40.7463 40.6626C41.2463 40.5001 41.7713 40.7876 41.9213 41.2751C42.0713 41.7751 41.7963 42.3001 41.3088 42.4501C40.7338 42.6251 40.1963 42.7126 39.6963 42.7126L39.7088 42.7001Z" stroke="#E4E7EC" stroke-width="0.4" mask="url(#path-5-outside-3_663_3485)"/>
<mask id="path-6-outside-4_663_3485" maskUnits="userSpaceOnUse" x="18.75" y="4.25" width="45" height="58" fill="black">
<rect fill="white" x="18.75" y="4.25" width="45" height="58"/>
<path d="M61.3333 36.0625C61.0333 35.5375 60.7333 35 60.4458 34.475C59.1458 32.1125 58.3208 30.65 57.6208 30.175L56.9458 29.7125L56.6833 30.5C56.4458 31.2125 55.9833 31.9875 55.7833 32.05C55.7833 32.0375 55.2583 31.825 54.6958 29.25C53.5583 24.0625 49.5458 22.025 46.0083 20.2375C44.8958 19.6625 43.8333 19.125 42.9458 18.525C39.5458 16.2 38.2833 7.8125 38.2708 7.725L38.0458 6.25L37.1458 7.45C33.6333 12.1 33.2333 16.05 32.8208 20.225C32.5833 22.6375 32.3333 25.125 31.4708 27.9C31.0333 29.2625 30.4958 30.0375 29.9458 30.075H29.8958C28.4958 30.075 26.2708 26.45 25.1333 23.85L24.7083 22.8625L24.0583 23.725C23.9833 23.8375 22.0333 26.5625 20.1083 40.0375C19.1083 47.075 20.1958 52.25 23.4458 55.85C26.1958 58.9 30.4458 60.75 36.3333 61.4375C37.3458 61.5625 38.3958 61.65 39.5083 61.6875C40.2208 61.725 40.9458 61.75 41.6958 61.75H42.0333C42.8583 61.75 43.7083 61.7375 44.5833 61.7C44.6958 61.7 44.8083 61.6875 44.9083 61.675C51.7083 61.3375 56.8458 58.3875 59.7833 53.1375C63.3833 46.675 62.6958 38.475 61.3333 36.0625ZM60.4958 47.875C60.1083 49.45 59.5208 51.025 58.6833 52.525C57.2833 55.0375 55.3958 56.95 53.0333 58.275C52.7458 58.4375 52.4458 58.6 52.1333 58.7375C51.2458 59.1625 50.2833 59.5125 49.2708 59.775C48.9208 59.875 48.5583 59.95 48.1958 60.025C47.8458 60.1 47.4708 60.1625 47.1083 60.2125C46.7208 60.275 46.3333 60.325 45.9333 60.35C45.5458 60.3875 45.1458 60.4125 44.7458 60.4375C44.6833 60.45 44.6083 60.45 44.5458 60.45C43.5583 60.4875 42.6083 60.5 41.6958 60.5C40.9458 60.5 40.2083 60.475 39.5083 60.4375C38.9083 60.4125 38.3208 60.375 37.7583 60.325C37.3208 60.2875 36.8958 60.25 36.4833 60.2C36.1333 60.1625 35.7958 60.1125 35.4583 60.0625C35.1583 60.025 34.8583 59.975 34.5708 59.925C33.8833 59.8 33.2208 59.6625 32.5958 59.5125C32.3083 59.4375 32.0208 59.3625 31.7333 59.275C31.5458 59.225 31.3708 59.175 31.1958 59.125C30.8458 59.0125 30.5083 58.9 30.1833 58.775C29.5833 58.55 29.0208 58.3125 28.4958 58.0625C28.3083 57.9625 28.1208 57.875 27.9458 57.775C26.9458 57.2375 26.0583 56.6125 25.2833 55.9125C25.1333 55.7875 24.9958 55.6625 24.8708 55.525C24.6958 55.3625 24.5333 55.1875 24.3708 55.0125C21.3958 51.7 20.4083 46.8625 21.3458 40.2125C21.4208 39.6625 21.5083 39.125 21.5833 38.6125C21.5958 38.5 21.6208 38.3875 21.6333 38.275C22.7958 30.75 23.9208 27.1375 24.5583 25.55C25.5958 27.6375 27.7333 31.325 29.9083 31.325C29.9458 31.325 29.9833 31.325 30.0208 31.325C31.1583 31.2625 32.0458 30.2375 32.6583 28.2875C32.7333 28.0625 32.7958 27.8375 32.8583 27.625C33.5958 25 33.8333 22.65 34.0583 20.3625C34.1083 19.8875 34.1583 19.425 34.2083 18.9625V18.925C34.5708 15.7125 35.0958 12.7625 37.2958 9.4125C37.8583 12.075 39.3083 17.5625 42.2458 19.575C43.1958 20.2125 44.2833 20.775 45.4458 21.3625C48.8958 23.1125 52.4583 24.925 53.4708 29.525C54.0333 32.0875 54.7208 33.25 55.7083 33.3C56.5458 33.375 57.0958 32.5625 57.4708 31.8625C57.9958 32.625 58.7083 33.9125 59.3458 35.0875C59.6458 35.6125 59.9458 36.15 60.2458 36.6875C61.0708 38.1625 61.7333 42.9625 60.4958 47.8875V47.875Z"/>
</mask>
<path d="M61.3333 36.0625C61.0333 35.5375 60.7333 35 60.4458 34.475C59.1458 32.1125 58.3208 30.65 57.6208 30.175L56.9458 29.7125L56.6833 30.5C56.4458 31.2125 55.9833 31.9875 55.7833 32.05C55.7833 32.0375 55.2583 31.825 54.6958 29.25C53.5583 24.0625 49.5458 22.025 46.0083 20.2375C44.8958 19.6625 43.8333 19.125 42.9458 18.525C39.5458 16.2 38.2833 7.8125 38.2708 7.725L38.0458 6.25L37.1458 7.45C33.6333 12.1 33.2333 16.05 32.8208 20.225C32.5833 22.6375 32.3333 25.125 31.4708 27.9C31.0333 29.2625 30.4958 30.0375 29.9458 30.075H29.8958C28.4958 30.075 26.2708 26.45 25.1333 23.85L24.7083 22.8625L24.0583 23.725C23.9833 23.8375 22.0333 26.5625 20.1083 40.0375C19.1083 47.075 20.1958 52.25 23.4458 55.85C26.1958 58.9 30.4458 60.75 36.3333 61.4375C37.3458 61.5625 38.3958 61.65 39.5083 61.6875C40.2208 61.725 40.9458 61.75 41.6958 61.75H42.0333C42.8583 61.75 43.7083 61.7375 44.5833 61.7C44.6958 61.7 44.8083 61.6875 44.9083 61.675C51.7083 61.3375 56.8458 58.3875 59.7833 53.1375C63.3833 46.675 62.6958 38.475 61.3333 36.0625ZM60.4958 47.875C60.1083 49.45 59.5208 51.025 58.6833 52.525C57.2833 55.0375 55.3958 56.95 53.0333 58.275C52.7458 58.4375 52.4458 58.6 52.1333 58.7375C51.2458 59.1625 50.2833 59.5125 49.2708 59.775C48.9208 59.875 48.5583 59.95 48.1958 60.025C47.8458 60.1 47.4708 60.1625 47.1083 60.2125C46.7208 60.275 46.3333 60.325 45.9333 60.35C45.5458 60.3875 45.1458 60.4125 44.7458 60.4375C44.6833 60.45 44.6083 60.45 44.5458 60.45C43.5583 60.4875 42.6083 60.5 41.6958 60.5C40.9458 60.5 40.2083 60.475 39.5083 60.4375C38.9083 60.4125 38.3208 60.375 37.7583 60.325C37.3208 60.2875 36.8958 60.25 36.4833 60.2C36.1333 60.1625 35.7958 60.1125 35.4583 60.0625C35.1583 60.025 34.8583 59.975 34.5708 59.925C33.8833 59.8 33.2208 59.6625 32.5958 59.5125C32.3083 59.4375 32.0208 59.3625 31.7333 59.275C31.5458 59.225 31.3708 59.175 31.1958 59.125C30.8458 59.0125 30.5083 58.9 30.1833 58.775C29.5833 58.55 29.0208 58.3125 28.4958 58.0625C28.3083 57.9625 28.1208 57.875 27.9458 57.775C26.9458 57.2375 26.0583 56.6125 25.2833 55.9125C25.1333 55.7875 24.9958 55.6625 24.8708 55.525C24.6958 55.3625 24.5333 55.1875 24.3708 55.0125C21.3958 51.7 20.4083 46.8625 21.3458 40.2125C21.4208 39.6625 21.5083 39.125 21.5833 38.6125C21.5958 38.5 21.6208 38.3875 21.6333 38.275C22.7958 30.75 23.9208 27.1375 24.5583 25.55C25.5958 27.6375 27.7333 31.325 29.9083 31.325C29.9458 31.325 29.9833 31.325 30.0208 31.325C31.1583 31.2625 32.0458 30.2375 32.6583 28.2875C32.7333 28.0625 32.7958 27.8375 32.8583 27.625C33.5958 25 33.8333 22.65 34.0583 20.3625C34.1083 19.8875 34.1583 19.425 34.2083 18.9625V18.925C34.5708 15.7125 35.0958 12.7625 37.2958 9.4125C37.8583 12.075 39.3083 17.5625 42.2458 19.575C43.1958 20.2125 44.2833 20.775 45.4458 21.3625C48.8958 23.1125 52.4583 24.925 53.4708 29.525C54.0333 32.0875 54.7208 33.25 55.7083 33.3C56.5458 33.375 57.0958 32.5625 57.4708 31.8625C57.9958 32.625 58.7083 33.9125 59.3458 35.0875C59.6458 35.6125 59.9458 36.15 60.2458 36.6875C61.0708 38.1625 61.7333 42.9625 60.4958 47.8875V47.875Z" fill="#E4E7EC"/>
<path d="M61.3333 36.0625C61.0333 35.5375 60.7333 35 60.4458 34.475C59.1458 32.1125 58.3208 30.65 57.6208 30.175L56.9458 29.7125L56.6833 30.5C56.4458 31.2125 55.9833 31.9875 55.7833 32.05C55.7833 32.0375 55.2583 31.825 54.6958 29.25C53.5583 24.0625 49.5458 22.025 46.0083 20.2375C44.8958 19.6625 43.8333 19.125 42.9458 18.525C39.5458 16.2 38.2833 7.8125 38.2708 7.725L38.0458 6.25L37.1458 7.45C33.6333 12.1 33.2333 16.05 32.8208 20.225C32.5833 22.6375 32.3333 25.125 31.4708 27.9C31.0333 29.2625 30.4958 30.0375 29.9458 30.075H29.8958C28.4958 30.075 26.2708 26.45 25.1333 23.85L24.7083 22.8625L24.0583 23.725C23.9833 23.8375 22.0333 26.5625 20.1083 40.0375C19.1083 47.075 20.1958 52.25 23.4458 55.85C26.1958 58.9 30.4458 60.75 36.3333 61.4375C37.3458 61.5625 38.3958 61.65 39.5083 61.6875C40.2208 61.725 40.9458 61.75 41.6958 61.75H42.0333C42.8583 61.75 43.7083 61.7375 44.5833 61.7C44.6958 61.7 44.8083 61.6875 44.9083 61.675C51.7083 61.3375 56.8458 58.3875 59.7833 53.1375C63.3833 46.675 62.6958 38.475 61.3333 36.0625ZM60.4958 47.875C60.1083 49.45 59.5208 51.025 58.6833 52.525C57.2833 55.0375 55.3958 56.95 53.0333 58.275C52.7458 58.4375 52.4458 58.6 52.1333 58.7375C51.2458 59.1625 50.2833 59.5125 49.2708 59.775C48.9208 59.875 48.5583 59.95 48.1958 60.025C47.8458 60.1 47.4708 60.1625 47.1083 60.2125C46.7208 60.275 46.3333 60.325 45.9333 60.35C45.5458 60.3875 45.1458 60.4125 44.7458 60.4375C44.6833 60.45 44.6083 60.45 44.5458 60.45C43.5583 60.4875 42.6083 60.5 41.6958 60.5C40.9458 60.5 40.2083 60.475 39.5083 60.4375C38.9083 60.4125 38.3208 60.375 37.7583 60.325C37.3208 60.2875 36.8958 60.25 36.4833 60.2C36.1333 60.1625 35.7958 60.1125 35.4583 60.0625C35.1583 60.025 34.8583 59.975 34.5708 59.925C33.8833 59.8 33.2208 59.6625 32.5958 59.5125C32.3083 59.4375 32.0208 59.3625 31.7333 59.275C31.5458 59.225 31.3708 59.175 31.1958 59.125C30.8458 59.0125 30.5083 58.9 30.1833 58.775C29.5833 58.55 29.0208 58.3125 28.4958 58.0625C28.3083 57.9625 28.1208 57.875 27.9458 57.775C26.9458 57.2375 26.0583 56.6125 25.2833 55.9125C25.1333 55.7875 24.9958 55.6625 24.8708 55.525C24.6958 55.3625 24.5333 55.1875 24.3708 55.0125C21.3958 51.7 20.4083 46.8625 21.3458 40.2125C21.4208 39.6625 21.5083 39.125 21.5833 38.6125C21.5958 38.5 21.6208 38.3875 21.6333 38.275C22.7958 30.75 23.9208 27.1375 24.5583 25.55C25.5958 27.6375 27.7333 31.325 29.9083 31.325C29.9458 31.325 29.9833 31.325 30.0208 31.325C31.1583 31.2625 32.0458 30.2375 32.6583 28.2875C32.7333 28.0625 32.7958 27.8375 32.8583 27.625C33.5958 25 33.8333 22.65 34.0583 20.3625C34.1083 19.8875 34.1583 19.425 34.2083 18.9625V18.925C34.5708 15.7125 35.0958 12.7625 37.2958 9.4125C37.8583 12.075 39.3083 17.5625 42.2458 19.575C43.1958 20.2125 44.2833 20.775 45.4458 21.3625C48.8958 23.1125 52.4583 24.925 53.4708 29.525C54.0333 32.0875 54.7208 33.25 55.7083 33.3C56.5458 33.375 57.0958 32.5625 57.4708 31.8625C57.9958 32.625 58.7083 33.9125 59.3458 35.0875C59.6458 35.6125 59.9458 36.15 60.2458 36.6875C61.0708 38.1625 61.7333 42.9625 60.4958 47.8875V47.875Z" stroke="#E4E7EC" mask="url(#path-6-outside-4_663_3485)"/>
</svg>
