<svg width="101" height="100" viewBox="0 0 101 100" fill="none" xmlns="http://www.w3.org/2000/svg">
<rect width="100" height="100" transform="translate(0.5)" fill="white"/>
<circle cx="50" cy="50.5" r="39.5" fill="#E4E7EC"/>
<path fill-rule="evenodd" clip-rule="evenodd" d="M50.3208 34C48.2735 34 46.6563 35.7373 46.8027 37.7794L48.1377 56.4032C48.2265 57.6423 49.2576 58.6021 50.4998 58.6021C51.742 58.6021 52.7731 57.6423 52.8619 56.4032L54.197 37.7794C54.3434 35.7373 52.7262 34 50.6788 34H50.3208ZM50.4998 62.612C52.4328 62.612 53.9998 64.179 53.9998 66.112C53.9998 68.045 52.4328 69.612 50.4998 69.612C48.5668 69.612 46.9998 68.045 46.9998 66.112C46.9998 64.179 48.5668 62.612 50.4998 62.612Z" fill="#475467"/>
</svg>
