<svg width="28" height="28" viewBox="0 0 28 28" fill="none" xmlns="http://www.w3.org/2000/svg">
<g clip-path="url(#clip0_705_3297)">
<rect width="28" height="28" fill="white"/>
<path d="M24.7292 8.07497C24.7292 10.4839 22.8491 12.462 20.4728 12.6056C20.3814 12.6187 20.2835 12.6187 20.1855 12.6187C20.0223 12.6187 19.8591 12.6122 19.7024 12.5926C18.8734 11.313 17.5155 10.6275 16.1902 9.95512C16.1315 9.92248 16.0662 9.88984 16.0074 9.86373C15.8899 9.58301 15.792 9.28924 15.7332 8.9824C15.6745 8.68863 15.6418 8.38833 15.6418 8.07497C15.6418 5.56156 17.6787 3.53125 20.1855 3.53125C22.6924 3.53125 24.7292 5.56156 24.7292 8.07497Z" fill="black"/>
<path d="M23.8154 25.9307C23.6717 26.3224 23.489 26.7011 23.2735 27.0667C23.0777 27.3996 22.8622 27.713 22.6272 28.0002H5.7385C5.53612 27.824 5.3468 27.6346 5.17054 27.4323C3.9628 26.0287 3.19246 24.1093 3.24469 21.7265C4.19782 15.0937 5.33374 13.9056 5.33374 13.9056C5.33374 13.9056 7.8602 19.6701 9.04182 15.8771C9.32254 14.9762 9.47921 14.1341 9.58367 13.3311C9.79257 11.6925 9.81216 10.2105 10.3214 8.64373C10.6086 7.74935 11.0656 6.83539 11.8098 5.84961C11.8098 5.84961 12.4365 10.1648 14.2579 11.3987C16.0728 12.6391 19.2325 13.2919 19.9441 16.5169C20.6557 19.7484 21.5239 17.1697 21.5239 17.1697C21.5239 17.1697 21.9156 18.3122 23.2605 19.9769C23.8545 20.7211 24.3442 23.2998 23.8154 25.9307Z" fill="#9EF22E"/>
<path d="M9.58362 13.3309C9.9949 11.9142 10.1255 10.6478 10.243 9.43348C10.2691 9.16582 10.2952 8.90469 10.3213 8.64355C9.81211 10.2104 9.79252 11.6923 9.58362 13.3309Z" fill="black"/>
<path d="M24.4879 17.6394C24.3312 17.3587 24.1745 17.078 24.0243 16.8038C23.3454 15.5764 22.9145 14.8126 22.549 14.5646L22.1964 14.323L22.0593 14.7278C21.9288 15.1064 21.6872 15.5046 21.5893 15.5373C21.5893 15.5373 21.3151 15.4198 21.0213 14.0749C20.8973 13.52 20.7145 13.0304 20.473 12.6061C19.5721 10.9413 17.953 10.1188 16.4842 9.37453C16.223 9.24397 15.975 9.1134 15.7334 8.98284C15.4266 8.81963 15.1459 8.65642 14.8847 8.48015C13.109 7.26588 12.4431 2.88538 12.4431 2.83968L12.3256 2.06934L11.8556 2.68953C10.0146 5.12459 9.81224 7.18755 9.59681 9.36801C9.47277 10.628 9.3422 11.9271 8.88522 13.3764C8.66326 14.088 8.38254 14.4927 8.0953 14.5058C7.37065 14.5646 6.1825 12.6322 5.5819 11.2547L5.35341 10.7455L5.02047 11.1959C4.9813 11.2482 3.96288 12.6713 2.95752 19.7089C2.61805 22.1048 2.76167 24.1024 3.40145 25.728C3.70828 26.5245 4.13915 27.2295 4.68099 27.8562C4.72016 27.9019 4.76586 27.9542 4.81809 27.9999H5.73858C5.5362 27.8236 5.34688 27.6343 5.17062 27.4319C3.96288 26.0283 3.38839 24.1743 3.44062 21.7914C3.45367 21.1647 3.5059 20.5053 3.60382 19.8003C4.26318 15.1847 4.92254 13.0435 5.2816 12.1491C5.82345 13.2393 6.93979 15.1586 8.07571 15.1586H8.12794C8.72854 15.126 9.19205 14.5907 9.51194 13.5723C9.53805 13.4939 9.56416 13.409 9.58375 13.3307C9.79265 11.6921 9.81224 10.2102 10.3214 8.64336C10.5108 6.98517 10.7915 5.45101 11.9339 3.71447C12.2212 5.10501 12.985 7.97094 14.5126 9.01548C14.9565 9.32231 15.4657 9.58997 16.0076 9.86416C16.0664 9.89027 16.1316 9.92291 16.1904 9.95556C17.5156 10.628 18.8735 11.3134 19.7026 12.593C20.0094 13.05 20.2379 13.5853 20.3816 14.2186C20.6753 15.5569 21.0344 16.164 21.5436 16.1901C21.9614 16.2228 22.2748 15.8049 22.4641 15.4328C22.7448 15.8376 23.1104 16.5035 23.4499 17.1171C23.6 17.3979 23.7567 17.6786 23.9199 17.9593C24.514 19.0103 25.0493 22.7968 23.8154 25.9304C23.6718 26.3221 23.489 26.7007 23.2736 27.0663C23.0777 27.3993 22.8623 27.7126 22.6273 27.9999H23.4499C23.5935 27.8105 23.7175 27.6082 23.8416 27.3993C25.9045 23.8544 25.2256 18.9516 24.4879 17.6394Z" fill="black"/>
<path d="M12.541 18.1028C12.8655 18.1028 13.1286 17.8398 13.1286 17.5153C13.1286 17.1908 12.8655 16.9277 12.541 16.9277C12.2165 16.9277 11.9535 17.1908 11.9535 17.5153C11.9535 17.8398 12.2165 18.1028 12.541 18.1028Z" fill="black"/>
<path d="M15.1391 18.1028C15.4636 18.1028 15.7266 17.8398 15.7266 17.5153C15.7266 17.1908 15.4636 16.9277 15.1391 16.9277C14.8146 16.9277 14.5515 17.1908 14.5515 17.5153C14.5515 17.8398 14.8146 18.1028 15.1391 18.1028Z" fill="black"/>
<path d="M20.1986 5.49675L18.3641 8.26476C18.325 8.32352 18.3641 8.40186 18.4359 8.40186H20.0745C20.1268 8.40186 20.1659 8.44755 20.1594 8.49978L19.9374 10.3473C19.9244 10.4387 20.0484 10.4779 20.0941 10.4061L22.0069 7.42261C22.0461 7.36385 22.0069 7.29204 21.9351 7.29204H20.2639C20.2116 7.29204 20.1725 7.24634 20.179 7.19412L20.3487 5.56856C20.3553 5.47716 20.2443 5.43799 20.1921 5.50981L20.1986 5.49675Z" fill="white"/>
<path d="M13.1938 21.1191C11.9926 21.1191 11.2614 20.2313 11.0199 19.6633C10.9154 19.4153 11.0264 19.128 11.2745 19.0236C11.5226 18.9191 11.8098 19.0301 11.9143 19.2782C11.9665 19.4022 12.4757 20.4467 13.7357 20.055C13.9968 19.9702 14.271 20.1203 14.3493 20.3749C14.4277 20.6361 14.284 20.9102 14.0294 20.9886C13.7291 21.08 13.4484 21.1257 13.1873 21.1257L13.1938 21.1191Z" fill="black"/>
</g>
<defs>
<clipPath id="clip0_705_3297">
<rect width="28" height="28" fill="white"/>
</clipPath>
</defs>
</svg>
