<svg width="28" height="28" viewBox="0 0 28 28" fill="none" xmlns="http://www.w3.org/2000/svg">
<path d="M7.85 5.88046C7.85 5.45626 7.85 5.24417 7.91182 5.07433C8.01544 4.78962 8.23972 4.56534 8.52443 4.46172C8.69426 4.3999 8.90636 4.3999 9.33055 4.3999H18.6694C19.0936 4.3999 19.3057 4.3999 19.4756 4.46172C19.7603 4.56534 19.9846 4.78962 20.0882 5.07433C20.15 5.24417 20.15 5.45626 20.15 5.88046V11.5749C20.15 14.9715 17.3966 17.7249 14 17.7249C10.6034 17.7249 7.85 14.9715 7.85 11.5749V5.88046Z" fill="#9EF22E"/>
<path d="M8.875 24.4443C8.875 22.4316 10.5067 20.7999 12.5194 20.7999H15.4806C17.4933 20.7999 19.125 22.4316 19.125 24.4443C19.125 24.6959 18.921 24.8999 18.6694 24.8999H9.33056C9.07896 24.8999 8.875 24.6959 8.875 24.4443Z" fill="#9EF22E"/>
<path d="M14 17.7249C10.6034 17.7249 7.85 14.9715 7.85 11.5749V5.88046C7.85 5.45626 7.85 5.24417 7.91182 5.07433C8.01544 4.78962 8.23972 4.56534 8.52443 4.46172C8.69426 4.3999 8.90636 4.3999 9.33056 4.3999H18.6694C19.0936 4.3999 19.3057 4.3999 19.4756 4.46172C19.7603 4.56534 19.9846 4.78962 20.0882 5.07433C20.15 5.24417 20.15 5.45626 20.15 5.88046V11.5749C20.15 14.9715 17.3966 17.7249 14 17.7249ZM14 17.7249V20.7999M20.15 6.4499H22.7125C23.1901 6.4499 23.4289 6.4499 23.6172 6.52793C23.8684 6.63196 24.0679 6.8315 24.172 7.08265C24.25 7.27102 24.25 7.50981 24.25 7.9874V8.4999C24.25 9.45312 24.25 9.92973 24.1452 10.3208C23.8609 11.3819 23.032 12.2108 21.9709 12.4951C21.5798 12.5999 21.1032 12.5999 20.15 12.5999M7.85 6.4499H5.2875C4.80991 6.4499 4.57111 6.4499 4.38275 6.52793C4.1316 6.63196 3.93205 6.8315 3.82802 7.08265C3.75 7.27102 3.75 7.50981 3.75 7.9874V8.4999C3.75 9.45312 3.75 9.92973 3.85478 10.3208C4.13911 11.3819 4.96797 12.2108 6.02913 12.4951C6.42017 12.5999 6.89678 12.5999 7.85 12.5999M9.33056 24.8999H18.6694C18.921 24.8999 19.125 24.6959 19.125 24.4443C19.125 22.4316 17.4933 20.7999 15.4806 20.7999H12.5194C10.5067 20.7999 8.875 22.4316 8.875 24.4443C8.875 24.6959 9.07896 24.8999 9.33056 24.8999Z" stroke="#101828" stroke-width="1.7571" stroke-linecap="round" stroke-linejoin="round"/>
</svg>
