<svg width="121" height="43" viewBox="0 0 121 43" fill="none" xmlns="http://www.w3.org/2000/svg">
<path d="M117.064 5.87891V23.9859H112.722V5.87891H117.064ZM107.125 7.62578V16.7969H97.0845V19.4508C102.24 19.434 105.87 19.2828 110.042 18.6109L110.585 22.0375C105.836 22.7766 101.698 22.9445 95.5581 22.9445H92.8445V13.5383H102.817V10.9852H92.8105V7.62578H107.125ZM117.064 25.3297V36.0797H96.3722V25.3297H117.064ZM100.646 28.7227V32.6531H112.824V28.7227H100.646Z" fill="white"/>
<path d="M85.3398 5.84473V11.7572H89.512V15.2846H85.3398V21.1299H80.998V5.84473H85.3398ZM85.3398 22.3393V30.6705H69.1597V32.7197H86.2217V36.0791H64.9197V27.5799H81.0319V25.6314H64.8518V22.3393H85.3398ZM69.3632 6.75176C74.1121 6.78535 77.6398 9.60723 77.6398 13.6721C77.6398 17.7033 74.1121 20.5924 69.3632 20.5924C64.6144 20.5924 61.0527 17.7033 61.0527 13.6721C61.0527 9.60723 64.6144 6.78535 69.3632 6.75176ZM69.3632 10.2455C66.9888 10.2455 65.2589 11.5221 65.2928 13.6721C65.2589 15.8557 66.9888 17.1994 69.3632 17.1994C71.7377 17.1994 73.4337 15.8557 73.4337 13.6721C73.4337 11.5221 71.7377 10.2455 69.3632 10.2455Z" fill="white"/>
<path d="M59.746 21.2654V24.6584H31.4902V21.2654H59.746ZM56.32 6.41699V14.5803H39.3259V16.3607H56.8967V19.6193H35.018V11.4896H51.9782V9.70918H34.9501V6.41699H56.32ZM56.4557 26.5396V36.0803H35.1197V26.5396H56.4557ZM39.3598 29.9326V32.6537H52.1478V29.9326H39.3598Z" fill="white"/>
<path d="M14.1743 14.176C14.1743 19.1143 16.7183 24.3885 21.9081 26.5385L19.5676 29.8979C15.9212 28.3693 13.411 25.3291 12.0373 21.6002C10.6296 25.6482 8.06857 29.0076 4.43908 30.6705L1.96289 27.2775C7.08488 25.0268 9.73068 19.3494 9.73068 14.176V12.2947H3.18403V8.80098H20.6191V12.2947H14.1743V14.176ZM28.0477 5.84473V36.415H23.672V5.84473H28.0477Z" fill="white"/>
</svg>
