<svg width="24" height="24" viewBox="0 0 24 24" fill="none" xmlns="http://www.w3.org/2000/svg">
<path d="M16.693 12.5705C16.6749 10.2978 18.4724 9.19 18.5561 9.1405C17.5372 7.58729 15.958 7.3741 15.4013 7.35887C14.0732 7.21423 12.7887 8.1888 12.1119 8.1888C11.4242 8.1888 10.3835 7.3741 9.25911 7.39696C7.81452 7.41978 6.46456 8.29539 5.7259 9.65065C4.19763 12.4183 5.33656 16.484 6.80297 18.7224C7.53433 19.8188 8.38946 21.0409 9.51019 20.999C10.6054 20.9533 11.0166 20.268 12.3375 20.268C13.6474 20.268 14.0331 20.999 15.1757 20.9723C16.351 20.9533 17.0933 19.8721 17.7992 18.7681C18.647 17.5119 18.9854 16.2746 19 16.2137C18.9709 16.1947 16.7149 15.2925 16.693 12.5705ZM14.5353 5.88561C15.1247 5.11282 15.5286 4.06593 15.4158 3C14.5644 3.03805 13.4946 3.6167 12.8833 4.37048C12.3411 5.03668 11.8535 6.12544 11.9809 7.1495C12.9342 7.22182 13.9203 6.64317 14.5353 5.88561Z" fill="black"/>
</svg>
