<svg width="28" height="28" viewBox="0 0 28 28" fill="none" xmlns="http://www.w3.org/2000/svg">
<g id="description">
<path id="Vector" d="M10.25 19.75H17.75V18.25H10.25V19.75ZM10.25 15.75H17.75V14.25H10.25V15.75ZM8.3077 23.5C7.80257 23.5 7.375 23.325 7.025 22.975C6.675 22.625 6.5 22.1974 6.5 21.6923V6.3077C6.5 5.80257 6.675 5.375 7.025 5.025C7.375 4.675 7.80257 4.5 8.3077 4.5H16.25L21.5 9.74995V21.6923C21.5 22.1974 21.325 22.625 20.975 22.975C20.625 23.325 20.1974 23.5 19.6922 23.5H8.3077ZM15.5 10.5V5.99998H8.3077C8.23077 5.99998 8.16024 6.03203 8.09612 6.09613C8.03202 6.16024 7.99997 6.23077 7.99997 6.3077V21.6923C7.99997 21.7692 8.03202 21.8397 8.09612 21.9038C8.16024 21.9679 8.23077 22 8.3077 22H19.6922C19.7692 22 19.8397 21.9679 19.9038 21.9038C19.9679 21.8397 20 21.7692 20 21.6923V10.5H15.5Z" fill="#101828"/>
</g>
</svg>
