<svg width="28" height="28" viewBox="0 0 28 28" fill="none" xmlns="http://www.w3.org/2000/svg">
<g id="headset">
<path id="Vector" fill-rule="evenodd" clip-rule="evenodd" d="M14 21.6923V23.1922H14V23.5208H17.0398V23.1922H20.6922C21.1974 23.1922 21.625 23.0172 21.975 22.6672C22.325 22.3172 22.5 21.8897 22.5 21.3846V12C22.5 10.8307 22.2769 9.73075 21.8307 8.7C21.3846 7.66923 20.7756 6.76795 20.0038 5.99615C19.232 5.22437 18.3307 4.6154 17.3 4.16925C16.2692 3.72308 15.1692 3.5 14 3.5C12.8307 3.5 11.7308 3.72308 10.7 4.16925C9.66923 4.6154 8.76795 5.22437 7.99615 5.99615C7.22437 6.76795 6.6154 7.66923 6.16925 8.7C5.72308 9.73075 5.5 10.8307 5.5 12V18.6923C5.5 19.1974 5.675 19.625 6.025 19.975C6.375 20.325 6.80257 20.5 7.3077 20.5H10.5384V13.4231H6.99997V12C6.99997 10.0666 7.68331 8.41664 9.04997 7.04998C10.4166 5.68331 12.0666 4.99998 14 4.99998C15.9333 4.99998 17.5833 5.68331 18.95 7.04998C20.3166 8.41664 21 10.0666 21 12V13.4231H17.4616V20.5H21V21.3846C21 21.4743 20.9711 21.548 20.9134 21.6057C20.8557 21.6634 20.782 21.6923 20.6922 21.6923H17.0398V21.3113H14V21.6923H14ZM9.03845 19H7.3077C7.21795 19 7.14423 18.9711 7.08652 18.9134C7.02883 18.8557 6.99997 18.782 6.99997 18.6923V14.9231H7.3077H9.03845V19ZM21 19H18.9615V14.9231H21V19Z" fill="#101828"/>
</g>
</svg>
