<svg width="28" height="28" viewBox="0 0 28 28" fill="none" xmlns="http://www.w3.org/2000/svg">
<path fill-rule="evenodd" clip-rule="evenodd" d="M6.41675 16.3343C6.41675 9.77998 12.5538 5.78175 13.3352 5.29922C13.3851 5.26846 13.4468 5.27103 13.4938 5.30597C13.8494 5.57056 15.375 6.76459 16.7662 8.7574C16.8257 8.84258 16.952 8.84494 17.0148 8.76221C17.4533 8.18487 17.8242 7.81956 17.9902 7.66629C18.0434 7.61716 18.1227 7.6165 18.1759 7.66561C18.7298 8.17688 21.5834 11.0665 21.5834 16.3332L21.5834 16.3343L21.5834 16.3381V16.4999C21.5834 16.532 21.5819 16.5638 21.5789 16.5952C21.5477 17.5021 21.354 18.3967 21.0062 19.2363C20.6251 20.1564 20.0665 20.9924 19.3623 21.6966C18.6581 22.4007 17.8222 22.9593 16.9021 23.3404C15.982 23.7215 14.9959 23.9177 14.0001 23.9177C13.0042 23.9177 12.0181 23.7215 11.0981 23.3404C10.178 22.9593 9.34203 22.4007 8.63785 21.6966C7.93368 20.9924 7.37509 20.1564 6.99399 19.2363C6.6129 18.3163 6.41675 17.3302 6.41675 16.3343Z" fill="#9EF22E"/>
<path d="M21.5834 16.3332H20.8334V16.3338L21.5834 16.3332ZM21.5834 16.3343L22.3334 16.3345V16.3337L21.5834 16.3343ZM21.5834 16.3381L20.8334 16.3379V16.3381H21.5834ZM21.5789 16.5952L20.8323 16.5246C20.8308 16.5395 20.8299 16.5544 20.8294 16.5694L21.5789 16.5952ZM21.0062 19.2363L21.6991 19.5234L21.6991 19.5234L21.0062 19.2363ZM19.3623 21.6966L18.832 21.1662L18.832 21.1662L19.3623 21.6966ZM11.0981 23.3404L10.8111 24.0333H10.8111L11.0981 23.3404ZM8.63785 21.6966L8.10752 22.2269L8.63785 21.6966ZM6.99399 19.2363L6.30109 19.5234H6.30109L6.99399 19.2363ZM17.9902 7.66629L18.499 8.21732L17.9902 7.66629ZM18.1759 7.66561L17.6672 8.21672L18.1759 7.66561ZM16.7662 8.7574L17.3812 8.32808L16.7662 8.7574ZM17.0148 8.76221L17.6121 9.21584L17.0148 8.76221ZM13.3352 5.29922L13.7293 5.93736L13.3352 5.29922ZM12.9412 4.66107C12.5169 4.92307 10.7175 6.08955 9.01669 8.04807C7.31631 10.006 5.66675 12.8125 5.66675 16.3343H7.16675C7.16675 13.3018 8.58572 10.832 10.1492 9.03161C11.7123 7.2318 13.3721 6.15789 13.7293 5.93736L12.9412 4.66107ZM17.3812 8.32808C15.9275 6.24574 14.334 4.99622 13.9414 4.70421L13.0461 5.90773C13.3649 6.14489 14.8225 7.28344 16.1513 9.18672L17.3812 8.32808ZM17.6121 9.21584C18.0199 8.6789 18.3598 8.34577 18.499 8.21732L17.4814 7.11525C17.2885 7.29335 16.8867 7.69084 16.4176 8.30858L17.6121 9.21584ZM17.6672 8.21672C18.1408 8.65391 20.8334 11.3584 20.8334 16.3332H22.3334C22.3334 10.7745 19.3188 7.69985 18.6846 7.1145L17.6672 8.21672ZM20.8334 16.3338L20.8334 16.335L22.3334 16.3337L22.3334 16.3326L20.8334 16.3338ZM20.8334 16.3341L20.8334 16.3379L22.3334 16.3383L22.3334 16.3345L20.8334 16.3341ZM20.8334 16.3381V16.4999H22.3334V16.3381H20.8334ZM20.8334 16.4999C20.8334 16.5084 20.833 16.5166 20.8323 16.5246L22.3256 16.6659C22.3308 16.611 22.3334 16.5556 22.3334 16.4999H20.8334ZM20.8294 16.5694C20.8012 17.3866 20.6266 18.1927 20.3133 18.9493L21.6991 19.5234C22.0813 18.6007 22.2942 17.6176 22.3285 16.621L20.8294 16.5694ZM20.3133 18.9493C19.9699 19.7784 19.4665 20.5317 18.832 21.1662L19.8926 22.2269C20.6665 21.4531 21.2803 20.5344 21.6991 19.5234L20.3133 18.9493ZM18.832 21.1662C18.1974 21.8008 17.4441 22.3041 16.6151 22.6475L17.1891 24.0333C18.2002 23.6145 19.1188 23.0007 19.8926 22.2269L18.832 21.1662ZM16.6151 22.6475C15.786 22.9909 14.8974 23.1677 14.0001 23.1677V24.6677C15.0944 24.6677 16.1781 24.4521 17.1891 24.0333L16.6151 22.6475ZM14.0001 23.1677C13.1027 23.1677 12.2141 22.9909 11.3851 22.6475L10.8111 24.0333C11.8221 24.4521 12.9057 24.6677 14.0001 24.6677V23.1677ZM11.3851 22.6475C10.556 22.3041 9.80272 21.8008 9.16818 21.1662L8.10752 22.2269C8.88135 23.0007 9.80001 23.6145 10.8111 24.0333L11.3851 22.6475ZM9.16818 21.1662C8.53365 20.5317 8.03031 19.7784 7.6869 18.9493L6.30109 19.5234C6.71987 20.5344 7.3337 21.4531 8.10752 22.2269L9.16818 21.1662ZM7.6869 18.9493C7.3435 18.1203 7.16675 17.2317 7.16675 16.3343H5.66675C5.66675 17.4287 5.8823 18.5123 6.30109 19.5234L7.6869 18.9493ZM18.499 8.21732C18.2699 8.42885 17.9063 8.4374 17.6672 8.21672L18.6846 7.1145C18.3391 6.7956 17.8169 6.80547 17.4814 7.11525L18.499 8.21732ZM16.1513 9.18672C16.5029 9.69038 17.2425 9.70245 17.6121 9.21584L16.4176 8.30858C16.6615 7.98742 17.1485 7.99478 17.3812 8.32808L16.1513 9.18672ZM13.7293 5.93736C13.5185 6.06752 13.2466 6.05688 13.0461 5.90773L13.9414 4.70421C13.647 4.48517 13.2516 4.4694 12.9412 4.66107L13.7293 5.93736Z" fill="#101828"/>
<path fill-rule="evenodd" clip-rule="evenodd" d="M9.91654 19.8338C9.91652 19.8338 9.9165 19.8337 9.9165 19.8337C9.91653 16.6323 13.3329 13.919 13.9158 13.4793C13.967 13.4407 14.033 13.4409 14.0842 13.4795C14.6619 13.9153 18.0176 16.5806 18.0822 19.7414C18.0829 19.772 18.0832 19.8027 18.0832 19.8334C18.0832 22.0886 16.2551 23.9168 13.9999 23.9168C11.7449 23.9168 9.91677 22.0888 9.91658 19.8338C9.91658 19.8338 9.91656 19.8338 9.91654 19.8338Z" fill="white"/>
<path d="M18.0822 19.7414L17.3324 19.7567L17.3324 19.758L18.0822 19.7414ZM9.91658 19.8338L9.16658 19.8339L9.91658 19.8338ZM13.9158 13.4793L13.4642 12.8805L13.9158 13.4793ZM14.0842 13.4795L14.5358 12.8807L14.0842 13.4795ZM13.4642 12.8805C13.1493 13.118 12.0972 13.9475 11.117 15.1461C10.1492 16.3294 9.16652 17.9759 9.1665 19.8337L10.6665 19.8337C10.6665 18.4902 11.392 17.1792 12.2782 16.0957C13.1518 15.0273 14.0994 14.2803 14.3674 14.0781L13.4642 12.8805ZM18.8321 19.7261C18.7947 17.8955 17.8141 16.2766 16.8545 15.1117C15.8828 13.932 14.8481 13.1162 14.5358 12.8807L13.6325 14.0782C13.898 14.2785 14.8301 15.0133 15.6967 16.0654C16.5756 17.1323 17.3052 18.4265 17.3324 19.7567L18.8321 19.7261ZM17.3324 19.758C17.333 19.783 17.3332 19.8082 17.3332 19.8334H18.8332C18.8332 19.7972 18.8328 19.7609 18.832 19.7248L17.3324 19.758ZM17.3332 19.8334C17.3332 21.6744 15.8409 23.1668 13.9999 23.1668V24.6668C16.6693 24.6668 18.8332 22.5028 18.8332 19.8334H17.3332ZM13.9999 23.1668C12.1591 23.1668 10.6667 21.6745 10.6666 19.8337L9.16658 19.8339C9.1668 22.503 11.3307 24.6668 13.9999 24.6668V23.1668ZM9.1665 19.8337C9.1665 20.2462 9.5006 20.5838 9.91654 20.5838V19.0838C10.3324 19.0838 10.6665 19.4212 10.6665 19.8337L9.1665 19.8337ZM10.6666 19.8337C10.6665 19.4272 10.3383 19.0838 9.91654 19.0838V20.5838C9.49477 20.5838 9.16661 20.2404 9.16658 19.8339L10.6666 19.8337ZM14.3674 14.0781C14.1502 14.2419 13.8476 14.2405 13.6325 14.0782L14.5358 12.8807C14.2184 12.6412 13.7838 12.6395 13.4642 12.8805L14.3674 14.0781Z" fill="#101828"/>
</svg>
