<svg width="36" height="36" viewBox="0 0 36 36" fill="none" xmlns="http://www.w3.org/2000/svg">
<g clip-path="url(#clip0_160_2659)">
<circle cx="18" cy="18" r="18" fill="#F36677"/>
<path d="M18 4L20.9712 6.91117L25 5.87564L26.1176 9.88241L30.1244 11L29.0888 15.0288L32 18L29.0888 20.9712L30.1244 25L26.1176 26.1176L25 30.1244L20.9712 29.0888L18 32L15.0288 29.0888L11 30.1244L9.88241 26.1176L5.87564 25L6.91117 20.9712L4 18L6.91117 15.0288L5.87564 11L9.88241 9.88241L11 5.87564L15.0288 6.91117L18 4Z" fill="white"/>
<path d="M22.5703 13.5703L13.5696 22.5711" stroke="#F36677"/>
<circle cx="15.3706" cy="15.3708" r="2.0458" transform="rotate(45 15.3706 15.3708)" stroke="#F36677"/>
<circle cx="20.77" cy="20.7702" r="2.0458" transform="rotate(45 20.77 20.7702)" stroke="#F36677"/>
</g>
<defs>
<clipPath id="clip0_160_2659">
<rect width="36" height="36" fill="white"/>
</clipPath>
</defs>
</svg>
