<svg width="100" height="100" viewBox="0 0 100 100" fill="none" xmlns="http://www.w3.org/2000/svg">
<rect width="100" height="100" fill="white"/>
<circle cx="49.5" cy="50.5" r="39" fill="#E4E7EC" stroke="black"/>
<path fill-rule="evenodd" clip-rule="evenodd" d="M49.8208 34C47.7735 34 46.1563 35.7373 46.3027 37.7794L47.6377 56.4032C47.7265 57.6423 48.7576 58.6021 49.9998 58.6021C51.242 58.6021 52.2731 57.6423 52.3619 56.4032L53.697 37.7794C53.8434 35.7373 52.2262 34 50.1788 34H49.8208ZM49.9998 62.612C51.9328 62.612 53.4998 64.179 53.4998 66.112C53.4998 68.045 51.9328 69.612 49.9998 69.612C48.0668 69.612 46.4998 68.045 46.4998 66.112C46.4998 64.179 48.0668 62.612 49.9998 62.612Z" fill="#475467"/>
</svg>
