<svg width="121" height="120" viewBox="0 0 121 120" fill="none" xmlns="http://www.w3.org/2000/svg">
<rect width="120" height="120" transform="translate(0.5)" fill="white"/>
<path d="M53.0716 19C56.1508 13.6667 63.8488 13.6667 66.928 19L107.631 89.5C110.71 94.8333 106.861 101.5 100.703 101.5H19.2966C13.1382 101.5 9.2892 94.8333 12.3684 89.5L53.0716 19Z" fill="#E4E7EC"/>
<path fill-rule="evenodd" clip-rule="evenodd" d="M59.7961 43.9004C57.4744 43.9004 55.6404 45.8706 55.8064 48.1864L57.3204 69.3068C57.4211 70.7119 58.5904 71.8004 59.9991 71.8004C61.4079 71.8004 62.5772 70.7119 62.6779 69.3068L64.1919 48.1864C64.3579 45.8706 62.5239 43.9004 60.2021 43.9004H59.7961ZM59.9999 77.2C62.4852 77.2 64.4999 79.2147 64.4999 81.7C64.4999 84.1852 62.4852 86.2 59.9999 86.2C57.5146 86.2 55.4999 84.1852 55.4999 81.7C55.4999 79.2147 57.5146 77.2 59.9999 77.2Z" fill="#475467"/>
</svg>
