<svg width="120" height="120" viewBox="0 0 120 120" fill="none" xmlns="http://www.w3.org/2000/svg">
<path d="M80.1305 108.263C80.243 109.088 79.5867 109.819 78.7617 109.819H62.4117C61.6617 109.819 61.043 109.219 61.043 108.45V92.6252H61.5492C62.7867 92.6252 64.0617 92.6064 65.3742 92.5502C65.543 92.5502 65.7117 92.5314 65.8617 92.5127L67.0242 101.981C67.0805 102.413 67.4555 102.75 67.9055 102.75H74.5805C74.5805 102.75 79.3617 102.75 80.1305 108.263Z" fill="#E4E7EC"/>
<path d="M57.7613 92.5312V108.45C57.7613 109.219 57.1426 109.819 56.3926 109.819H40.0426C39.2176 109.819 38.5801 109.088 38.6926 108.263C39.4426 102.75 44.2426 102.75 44.2426 102.75H50.8988C51.3488 102.75 51.7238 102.412 51.7801 101.981L52.9988 92.1562C54.5176 92.3438 56.0926 92.475 57.7613 92.5312Z" fill="#E4E7EC"/>
<mask id="path-3-outside-1_663_3445" maskUnits="userSpaceOnUse" x="60.9609" y="51.0127" width="5" height="5" fill="black">
<rect fill="white" x="60.9609" y="51.0127" width="5" height="5"/>
<path d="M63.6484 55.3877C64.5804 55.3877 65.3359 54.6322 65.3359 53.7002C65.3359 52.7682 64.5804 52.0127 63.6484 52.0127C62.7165 52.0127 61.9609 52.7682 61.9609 53.7002C61.9609 54.6322 62.7165 55.3877 63.6484 55.3877Z"/>
</mask>
<path d="M63.6484 55.3877C64.5804 55.3877 65.3359 54.6322 65.3359 53.7002C65.3359 52.7682 64.5804 52.0127 63.6484 52.0127C62.7165 52.0127 61.9609 52.7682 61.9609 53.7002C61.9609 54.6322 62.7165 55.3877 63.6484 55.3877Z" fill="#E4E7EC"/>
<path d="M63.6484 55.3877C64.5804 55.3877 65.3359 54.6322 65.3359 53.7002C65.3359 52.7682 64.5804 52.0127 63.6484 52.0127C62.7165 52.0127 61.9609 52.7682 61.9609 53.7002C61.9609 54.6322 62.7165 55.3877 63.6484 55.3877Z" stroke="#E4E7EC" stroke-width="0.4" mask="url(#path-3-outside-1_663_3445)"/>
<mask id="path-4-outside-2_663_3445" maskUnits="userSpaceOnUse" x="53.4999" y="51.0127" width="5" height="5" fill="black">
<rect fill="white" x="53.4999" y="51.0127" width="5" height="5"/>
<path d="M56.1874 55.3877C57.1194 55.3877 57.8749 54.6322 57.8749 53.7002C57.8749 52.7682 57.1194 52.0127 56.1874 52.0127C55.2554 52.0127 54.4999 52.7682 54.4999 53.7002C54.4999 54.6322 55.2554 55.3877 56.1874 55.3877Z"/>
</mask>
<path d="M56.1874 55.3877C57.1194 55.3877 57.8749 54.6322 57.8749 53.7002C57.8749 52.7682 57.1194 52.0127 56.1874 52.0127C55.2554 52.0127 54.4999 52.7682 54.4999 53.7002C54.4999 54.6322 55.2554 55.3877 56.1874 55.3877Z" fill="#E4E7EC"/>
<path d="M56.1874 55.3877C57.1194 55.3877 57.8749 54.6322 57.8749 53.7002C57.8749 52.7682 57.1194 52.0127 56.1874 52.0127C55.2554 52.0127 54.4999 52.7682 54.4999 53.7002C54.4999 54.6322 55.2554 55.3877 56.1874 55.3877Z" stroke="#E4E7EC" stroke-width="0.4" mask="url(#path-4-outside-2_663_3445)"/>
<mask id="path-5-outside-3_663_3445" maskUnits="userSpaceOnUse" x="50.707" y="56.9189" width="11" height="8" fill="black">
<rect fill="white" x="50.707" y="56.9189" width="11" height="8"/>
<path d="M58.0633 64.0502C54.6133 64.0502 52.5133 61.5002 51.8196 59.869C51.5196 59.1565 51.8383 58.3315 52.5508 58.0315C53.2633 57.7315 54.0883 58.0502 54.3883 58.7627C54.5383 59.119 56.0008 62.119 59.6196 60.994C60.3696 60.7502 61.1571 61.1815 61.3821 61.9127C61.6071 62.6627 61.1946 63.4502 60.4633 63.6752C59.6008 63.9377 58.7946 64.069 58.0446 64.069L58.0633 64.0502Z"/>
</mask>
<path d="M58.0633 64.0502C54.6133 64.0502 52.5133 61.5002 51.8196 59.869C51.5196 59.1565 51.8383 58.3315 52.5508 58.0315C53.2633 57.7315 54.0883 58.0502 54.3883 58.7627C54.5383 59.119 56.0008 62.119 59.6196 60.994C60.3696 60.7502 61.1571 61.1815 61.3821 61.9127C61.6071 62.6627 61.1946 63.4502 60.4633 63.6752C59.6008 63.9377 58.7946 64.069 58.0446 64.069L58.0633 64.0502Z" fill="#E4E7EC"/>
<path d="M58.0633 64.0502C54.6133 64.0502 52.5133 61.5002 51.8196 59.869C51.5196 59.1565 51.8383 58.3315 52.5508 58.0315C53.2633 57.7315 54.0883 58.0502 54.3883 58.7627C54.5383 59.119 56.0008 62.119 59.6196 60.994C60.3696 60.7502 61.1571 61.1815 61.3821 61.9127C61.6071 62.6627 61.1946 63.4502 60.4633 63.6752C59.6008 63.9377 58.7946 64.069 58.0446 64.069L58.0633 64.0502Z" stroke="#E4E7EC" stroke-width="0.4" mask="url(#path-5-outside-3_663_3445)"/>
<mask id="path-6-outside-4_663_3445" maskUnits="userSpaceOnUse" x="27.125" y="7.375" width="66" height="86" fill="black">
<rect fill="white" x="27.125" y="7.375" width="66" height="86"/>
<path d="M90.4999 54.0937C90.0499 53.3062 89.5999 52.5 89.1686 51.7125C87.2186 48.1687 85.9811 45.975 84.9311 45.2625L83.9186 44.5687L83.5249 45.75C83.1686 46.8187 82.4749 47.9812 82.1749 48.075C82.1749 48.0562 81.3874 47.7375 80.5436 43.875C78.8374 36.0937 72.8186 33.0375 67.5124 30.3562C65.8436 29.4937 64.2499 28.6875 62.9186 27.7875C57.8186 24.3 55.9249 11.7187 55.9061 11.5875L55.5686 9.375L54.2186 11.175C48.9499 18.15 48.3499 24.075 47.7311 30.3375C47.3749 33.9562 46.9999 37.6875 45.7061 41.85C45.0499 43.8937 44.2436 45.0562 43.4186 45.1125H43.3436C41.2436 45.1125 37.9061 39.675 36.1999 35.775L35.5624 34.2937L34.5874 35.5875C34.4749 35.7562 31.5499 39.8437 28.6624 60.0562C27.1624 70.6125 28.7936 78.375 33.6686 83.775C37.7936 88.35 44.1686 91.125 52.9999 92.1562C54.5186 92.3437 56.0936 92.475 57.7624 92.5312C58.8311 92.5875 59.9186 92.625 61.0436 92.625H61.5499C62.7874 92.625 64.0624 92.6062 65.3749 92.55C65.5436 92.55 65.7124 92.5312 65.8624 92.5125C76.0624 92.0062 83.7686 87.5812 88.1749 79.7062C93.5749 70.0125 92.5436 57.7125 90.4999 54.0937ZM89.2436 71.8125C88.6624 74.175 87.7811 76.5375 86.5249 78.7875C84.4249 82.5562 81.5936 85.425 78.0499 87.4125C77.6186 87.6562 77.1686 87.9 76.6999 88.1062C75.3686 88.7437 73.9249 89.2687 72.4061 89.6625C71.8811 89.8125 71.3374 89.925 70.7936 90.0375C70.2686 90.15 69.7061 90.2437 69.1624 90.3187C68.5811 90.4125 67.9999 90.4875 67.3999 90.525C66.8186 90.5812 66.2186 90.6187 65.6186 90.6562C65.5249 90.675 65.4124 90.675 65.3186 90.675C63.8374 90.7312 62.4124 90.75 61.0436 90.75C59.9186 90.75 58.8124 90.7125 57.7624 90.6562C56.8624 90.6187 55.9811 90.5625 55.1374 90.4875C54.4811 90.4312 53.8436 90.375 53.2249 90.3C52.6999 90.2437 52.1936 90.1687 51.6874 90.0937C51.2374 90.0375 50.7874 89.9625 50.3561 89.8875C49.3249 89.7 48.3311 89.4937 47.3936 89.2687C46.9624 89.1562 46.5311 89.0437 46.0999 88.9125C45.8186 88.8375 45.5561 88.7625 45.2936 88.6875C44.7686 88.5187 44.2624 88.35 43.7749 88.1625C42.8749 87.825 42.0311 87.4687 41.2436 87.0937C40.9624 86.9437 40.6811 86.8125 40.4186 86.6625C38.9186 85.8562 37.5874 84.9187 36.4249 83.8687C36.1999 83.6812 35.9936 83.4937 35.8061 83.2875C35.5436 83.0437 35.2999 82.7812 35.0561 82.5187C30.5936 77.55 29.1124 70.2937 30.5186 60.3187C30.6311 59.4937 30.7624 58.6875 30.8749 57.9187C30.8936 57.75 30.9311 57.5812 30.9499 57.4125C32.6936 46.125 34.3811 40.7062 35.3374 38.325C36.8936 41.4562 40.0999 46.9875 43.3624 46.9875C43.4186 46.9875 43.4749 46.9875 43.5311 46.9875C45.2374 46.8937 46.5686 45.3562 47.4874 42.4312C47.5999 42.0937 47.6936 41.7562 47.7874 41.4375C48.8936 37.5 49.2499 33.975 49.5874 30.5437C49.6624 29.8312 49.7374 29.1375 49.8124 28.4437V28.3875C50.3561 23.5687 51.1436 19.1437 54.4436 14.1187C55.2874 18.1125 57.4624 26.3437 61.8686 29.3625C63.2936 30.3187 64.9249 31.1625 66.6686 32.0437C71.8436 34.6687 77.1874 37.3875 78.7061 44.2875C79.5499 48.1312 80.5811 49.875 82.0624 49.95C83.3186 50.0625 84.1436 48.8437 84.7061 47.7937C85.4936 48.9375 86.5624 50.8687 87.5186 52.6312C87.9686 53.4187 88.4186 54.225 88.8686 55.0312C90.1061 57.2437 91.0999 64.4437 89.2436 71.8312V71.8125Z"/>
</mask>
<path d="M90.4999 54.0937C90.0499 53.3062 89.5999 52.5 89.1686 51.7125C87.2186 48.1687 85.9811 45.975 84.9311 45.2625L83.9186 44.5687L83.5249 45.75C83.1686 46.8187 82.4749 47.9812 82.1749 48.075C82.1749 48.0562 81.3874 47.7375 80.5436 43.875C78.8374 36.0937 72.8186 33.0375 67.5124 30.3562C65.8436 29.4937 64.2499 28.6875 62.9186 27.7875C57.8186 24.3 55.9249 11.7187 55.9061 11.5875L55.5686 9.375L54.2186 11.175C48.9499 18.15 48.3499 24.075 47.7311 30.3375C47.3749 33.9562 46.9999 37.6875 45.7061 41.85C45.0499 43.8937 44.2436 45.0562 43.4186 45.1125H43.3436C41.2436 45.1125 37.9061 39.675 36.1999 35.775L35.5624 34.2937L34.5874 35.5875C34.4749 35.7562 31.5499 39.8437 28.6624 60.0562C27.1624 70.6125 28.7936 78.375 33.6686 83.775C37.7936 88.35 44.1686 91.125 52.9999 92.1562C54.5186 92.3437 56.0936 92.475 57.7624 92.5312C58.8311 92.5875 59.9186 92.625 61.0436 92.625H61.5499C62.7874 92.625 64.0624 92.6062 65.3749 92.55C65.5436 92.55 65.7124 92.5312 65.8624 92.5125C76.0624 92.0062 83.7686 87.5812 88.1749 79.7062C93.5749 70.0125 92.5436 57.7125 90.4999 54.0937ZM89.2436 71.8125C88.6624 74.175 87.7811 76.5375 86.5249 78.7875C84.4249 82.5562 81.5936 85.425 78.0499 87.4125C77.6186 87.6562 77.1686 87.9 76.6999 88.1062C75.3686 88.7437 73.9249 89.2687 72.4061 89.6625C71.8811 89.8125 71.3374 89.925 70.7936 90.0375C70.2686 90.15 69.7061 90.2437 69.1624 90.3187C68.5811 90.4125 67.9999 90.4875 67.3999 90.525C66.8186 90.5812 66.2186 90.6187 65.6186 90.6562C65.5249 90.675 65.4124 90.675 65.3186 90.675C63.8374 90.7312 62.4124 90.75 61.0436 90.75C59.9186 90.75 58.8124 90.7125 57.7624 90.6562C56.8624 90.6187 55.9811 90.5625 55.1374 90.4875C54.4811 90.4312 53.8436 90.375 53.2249 90.3C52.6999 90.2437 52.1936 90.1687 51.6874 90.0937C51.2374 90.0375 50.7874 89.9625 50.3561 89.8875C49.3249 89.7 48.3311 89.4937 47.3936 89.2687C46.9624 89.1562 46.5311 89.0437 46.0999 88.9125C45.8186 88.8375 45.5561 88.7625 45.2936 88.6875C44.7686 88.5187 44.2624 88.35 43.7749 88.1625C42.8749 87.825 42.0311 87.4687 41.2436 87.0937C40.9624 86.9437 40.6811 86.8125 40.4186 86.6625C38.9186 85.8562 37.5874 84.9187 36.4249 83.8687C36.1999 83.6812 35.9936 83.4937 35.8061 83.2875C35.5436 83.0437 35.2999 82.7812 35.0561 82.5187C30.5936 77.55 29.1124 70.2937 30.5186 60.3187C30.6311 59.4937 30.7624 58.6875 30.8749 57.9187C30.8936 57.75 30.9311 57.5812 30.9499 57.4125C32.6936 46.125 34.3811 40.7062 35.3374 38.325C36.8936 41.4562 40.0999 46.9875 43.3624 46.9875C43.4186 46.9875 43.4749 46.9875 43.5311 46.9875C45.2374 46.8937 46.5686 45.3562 47.4874 42.4312C47.5999 42.0937 47.6936 41.7562 47.7874 41.4375C48.8936 37.5 49.2499 33.975 49.5874 30.5437C49.6624 29.8312 49.7374 29.1375 49.8124 28.4437V28.3875C50.3561 23.5687 51.1436 19.1437 54.4436 14.1187C55.2874 18.1125 57.4624 26.3437 61.8686 29.3625C63.2936 30.3187 64.9249 31.1625 66.6686 32.0437C71.8436 34.6687 77.1874 37.3875 78.7061 44.2875C79.5499 48.1312 80.5811 49.875 82.0624 49.95C83.3186 50.0625 84.1436 48.8437 84.7061 47.7937C85.4936 48.9375 86.5624 50.8687 87.5186 52.6312C87.9686 53.4187 88.4186 54.225 88.8686 55.0312C90.1061 57.2437 91.0999 64.4437 89.2436 71.8312V71.8125Z" fill="#E4E7EC"/>
<path d="M90.4999 54.0937C90.0499 53.3062 89.5999 52.5 89.1686 51.7125C87.2186 48.1687 85.9811 45.975 84.9311 45.2625L83.9186 44.5687L83.5249 45.75C83.1686 46.8187 82.4749 47.9812 82.1749 48.075C82.1749 48.0562 81.3874 47.7375 80.5436 43.875C78.8374 36.0937 72.8186 33.0375 67.5124 30.3562C65.8436 29.4937 64.2499 28.6875 62.9186 27.7875C57.8186 24.3 55.9249 11.7187 55.9061 11.5875L55.5686 9.375L54.2186 11.175C48.9499 18.15 48.3499 24.075 47.7311 30.3375C47.3749 33.9562 46.9999 37.6875 45.7061 41.85C45.0499 43.8937 44.2436 45.0562 43.4186 45.1125H43.3436C41.2436 45.1125 37.9061 39.675 36.1999 35.775L35.5624 34.2937L34.5874 35.5875C34.4749 35.7562 31.5499 39.8437 28.6624 60.0562C27.1624 70.6125 28.7936 78.375 33.6686 83.775C37.7936 88.35 44.1686 91.125 52.9999 92.1562C54.5186 92.3437 56.0936 92.475 57.7624 92.5312C58.8311 92.5875 59.9186 92.625 61.0436 92.625H61.5499C62.7874 92.625 64.0624 92.6062 65.3749 92.55C65.5436 92.55 65.7124 92.5312 65.8624 92.5125C76.0624 92.0062 83.7686 87.5812 88.1749 79.7062C93.5749 70.0125 92.5436 57.7125 90.4999 54.0937ZM89.2436 71.8125C88.6624 74.175 87.7811 76.5375 86.5249 78.7875C84.4249 82.5562 81.5936 85.425 78.0499 87.4125C77.6186 87.6562 77.1686 87.9 76.6999 88.1062C75.3686 88.7437 73.9249 89.2687 72.4061 89.6625C71.8811 89.8125 71.3374 89.925 70.7936 90.0375C70.2686 90.15 69.7061 90.2437 69.1624 90.3187C68.5811 90.4125 67.9999 90.4875 67.3999 90.525C66.8186 90.5812 66.2186 90.6187 65.6186 90.6562C65.5249 90.675 65.4124 90.675 65.3186 90.675C63.8374 90.7312 62.4124 90.75 61.0436 90.75C59.9186 90.75 58.8124 90.7125 57.7624 90.6562C56.8624 90.6187 55.9811 90.5625 55.1374 90.4875C54.4811 90.4312 53.8436 90.375 53.2249 90.3C52.6999 90.2437 52.1936 90.1687 51.6874 90.0937C51.2374 90.0375 50.7874 89.9625 50.3561 89.8875C49.3249 89.7 48.3311 89.4937 47.3936 89.2687C46.9624 89.1562 46.5311 89.0437 46.0999 88.9125C45.8186 88.8375 45.5561 88.7625 45.2936 88.6875C44.7686 88.5187 44.2624 88.35 43.7749 88.1625C42.8749 87.825 42.0311 87.4687 41.2436 87.0937C40.9624 86.9437 40.6811 86.8125 40.4186 86.6625C38.9186 85.8562 37.5874 84.9187 36.4249 83.8687C36.1999 83.6812 35.9936 83.4937 35.8061 83.2875C35.5436 83.0437 35.2999 82.7812 35.0561 82.5187C30.5936 77.55 29.1124 70.2937 30.5186 60.3187C30.6311 59.4937 30.7624 58.6875 30.8749 57.9187C30.8936 57.75 30.9311 57.5812 30.9499 57.4125C32.6936 46.125 34.3811 40.7062 35.3374 38.325C36.8936 41.4562 40.0999 46.9875 43.3624 46.9875C43.4186 46.9875 43.4749 46.9875 43.5311 46.9875C45.2374 46.8937 46.5686 45.3562 47.4874 42.4312C47.5999 42.0937 47.6936 41.7562 47.7874 41.4375C48.8936 37.5 49.2499 33.975 49.5874 30.5437C49.6624 29.8312 49.7374 29.1375 49.8124 28.4437V28.3875C50.3561 23.5687 51.1436 19.1437 54.4436 14.1187C55.2874 18.1125 57.4624 26.3437 61.8686 29.3625C63.2936 30.3187 64.9249 31.1625 66.6686 32.0437C71.8436 34.6687 77.1874 37.3875 78.7061 44.2875C79.5499 48.1312 80.5811 49.875 82.0624 49.95C83.3186 50.0625 84.1436 48.8437 84.7061 47.7937C85.4936 48.9375 86.5624 50.8687 87.5186 52.6312C87.9686 53.4187 88.4186 54.225 88.8686 55.0312C90.1061 57.2437 91.0999 64.4437 89.2436 71.8312V71.8125Z" stroke="#E4E7EC" mask="url(#path-6-outside-4_663_3445)"/>
</svg>
