<svg width="28" height="28" viewBox="0 0 28 28" fill="none" xmlns="http://www.w3.org/2000/svg">
<path d="M14.0001 17C10.83 17 8.01089 18.5306 6.21609 20.906C5.8298 21.4172 5.63665 21.6728 5.64297 22.0183C5.64785 22.2852 5.81546 22.6219 6.02546 22.7867C6.29728 23 6.67396 23 7.42733 23H20.5729C21.3262 23 21.7029 23 21.9747 22.7867C22.1847 22.6219 22.3523 22.2852 22.3572 22.0183C22.3635 21.6728 22.1704 21.4172 21.7841 20.906C19.9893 18.5306 17.1702 17 14.0001 17Z" fill="#9EF22E"/>
<path d="M14.0001 14C16.4854 14 18.5001 11.9853 18.5001 9.5C18.5001 7.01472 16.4854 5 14.0001 5C11.5148 5 9.5001 7.01472 9.5001 9.5C9.5001 11.9853 11.5148 14 14.0001 14Z" fill="#9EF22E"/>
<path d="M14.0001 17C10.83 17 8.01089 18.5306 6.21609 20.906C5.8298 21.4172 5.63665 21.6728 5.64297 22.0183C5.64785 22.2852 5.81546 22.6219 6.02546 22.7867C6.29728 23 6.67396 23 7.42733 23H20.5729C21.3262 23 21.7029 23 21.9747 22.7867C22.1847 22.6219 22.3523 22.2852 22.3572 22.0183C22.3635 21.6728 22.1704 21.4172 21.7841 20.906C19.9893 18.5306 17.1702 17 14.0001 17Z" stroke="#101828" stroke-width="1.5" stroke-linecap="round" stroke-linejoin="round"/>
<path d="M14.0001 14C16.4854 14 18.5001 11.9853 18.5001 9.5C18.5001 7.01472 16.4854 5 14.0001 5C11.5148 5 9.5001 7.01472 9.5001 9.5C9.5001 11.9853 11.5148 14 14.0001 14Z" stroke="#101828" stroke-width="1.5" stroke-linecap="round" stroke-linejoin="round"/>
</svg>
