<svg width="28" height="28" viewBox="0 0 28 28" fill="none" xmlns="http://www.w3.org/2000/svg">
<path d="M14 17.7254C10.6034 17.7254 7.85 14.9719 7.85 11.5754V5.88095C7.85 5.45675 7.85 5.24466 7.91182 5.07482C8.01544 4.79011 8.23972 4.56583 8.52443 4.46221C8.69426 4.40039 8.90636 4.40039 9.33055 4.40039H18.6694C19.0936 4.40039 19.3057 4.40039 19.4756 4.46221C19.7603 4.56583 19.9846 4.79011 20.0882 5.07482C20.15 5.24466 20.15 5.45675 20.15 5.88095V11.5754C20.15 14.9719 17.3966 17.7254 14 17.7254ZM14 17.7254V20.8004M20.15 6.45039H22.7125C23.1901 6.45039 23.4289 6.45039 23.6172 6.52841C23.8684 6.63245 24.0679 6.83199 24.172 7.08314C24.25 7.27151 24.25 7.5103 24.25 7.98789V8.50039C24.25 9.45361 24.25 9.93022 24.1452 10.3213C23.8609 11.3824 23.032 12.2113 21.9709 12.4956C21.5798 12.6004 21.1032 12.6004 20.15 12.6004M7.85 6.45039H5.2875C4.80991 6.45039 4.57111 6.45039 4.38275 6.52841C4.1316 6.63245 3.93205 6.83199 3.82802 7.08314C3.75 7.27151 3.75 7.5103 3.75 7.98789V8.50039C3.75 9.45361 3.75 9.93022 3.85478 10.3213C4.13911 11.3824 4.96797 12.2113 6.02913 12.4956C6.42017 12.6004 6.89678 12.6004 7.85 12.6004M9.33056 24.9004H18.6694C18.921 24.9004 19.125 24.6964 19.125 24.4448C19.125 22.4321 17.4933 20.8004 15.4806 20.8004H12.5194C10.5067 20.8004 8.875 22.4321 8.875 24.4448C8.875 24.6964 9.07896 24.9004 9.33056 24.9004Z" stroke="#667085" stroke-width="1.7571" stroke-linecap="round" stroke-linejoin="round"/>
</svg>
