<svg width="28" height="28" viewBox="0 0 28 28" fill="none" xmlns="http://www.w3.org/2000/svg">
<path d="M22.7994 24.0068L15.4719 16.679C14.8885 17.1606 14.2177 17.5376 13.4594 17.8098C12.701 18.082 11.9165 18.2181 11.1059 18.2181C9.11187 18.2181 7.42428 17.5278 6.04314 16.147C4.66201 14.7663 3.97144 13.0791 3.97144 11.0854C3.97144 9.09198 4.66181 7.40421 6.04256 6.02209C7.42331 4.64018 9.1105 3.94922 11.1041 3.94922C13.0976 3.94922 14.7854 4.63979 16.1675 6.02093C17.5494 7.40207 18.2404 9.08965 18.2404 11.0837C18.2404 11.9169 18.1005 12.7126 17.8209 13.471C17.5411 14.2293 17.1679 14.8889 16.7012 15.4496L24.0288 22.7772L22.7994 24.0068ZM11.1059 16.4684C12.6091 16.4684 13.8824 15.9467 14.9256 14.9033C15.9689 13.8601 16.4906 12.5869 16.4906 11.0837C16.4906 9.58043 15.9689 8.3072 14.9256 7.26401C13.8824 6.22062 12.6091 5.69893 11.1059 5.69893C9.60264 5.69893 8.32942 6.22062 7.28623 7.26401C6.24284 8.3072 5.72114 9.58043 5.72114 11.0837C5.72114 12.5869 6.24284 13.8601 7.28623 14.9033C8.32942 15.9467 9.60264 16.4684 11.1059 16.4684Z" fill="white"/>
</svg>
