<svg width="165" height="165" viewBox="0 0 165 165" fill="none" xmlns="http://www.w3.org/2000/svg">
<g opacity="0.2" clip-path="url(#clip0_651_23611)">
<ellipse cx="67.1227" cy="120.368" rx="11.2147" ry="11.2147" transform="rotate(19.0874 67.1227 120.368)" fill="#039100"/>
<ellipse cx="67.1227" cy="120.368" rx="4.67277" ry="4.67278" transform="rotate(19.0874 67.1227 120.368)" fill="white"/>
<circle cx="95.3844" cy="130.148" r="11.2147" transform="rotate(19.0874 95.3844 130.148)" fill="#039100"/>
<circle cx="95.3844" cy="130.148" r="4.67278" transform="rotate(19.0874 95.3844 130.148)" fill="white"/>
<path d="M147.486 68.6085C147.302 68.0708 146.999 67.582 146.598 67.1794C146.197 66.7768 145.71 66.471 145.173 66.2852L64.0303 38.207L58.0582 95.476L116.238 115.608C117.026 115.881 117.882 115.882 118.671 115.612C119.46 115.342 120.135 114.816 120.591 114.118L147.081 71.8603C147.71 70.8975 147.861 69.6975 147.486 68.6085Z" fill="#D8FAAB"/>
<path fill-rule="evenodd" clip-rule="evenodd" d="M41.6369 22.545C42.3121 20.594 44.441 19.5596 46.3921 20.2348L63.1724 26.0413C64.7859 26.5997 65.816 28.1802 65.6755 29.8818L59.4011 105.828L109.65 123.216C111.601 123.891 112.635 126.02 111.96 127.971C111.285 129.922 109.156 130.956 107.205 130.281L54.2142 111.945C52.6007 111.386 51.5706 109.806 51.7111 108.104L57.9855 32.1579L43.9472 27.3002C41.9961 26.625 40.9618 24.4961 41.6369 22.545Z" fill="#4AD11B"/>
<path fill-rule="evenodd" clip-rule="evenodd" d="M57.8088 55.8307C58.4839 53.8796 60.6129 52.8453 62.5639 53.5204L133.218 77.9691C135.169 78.6442 136.203 80.7732 135.528 82.7242C134.853 84.6753 132.724 85.7096 130.773 85.0345L60.1191 60.5858C58.168 59.9107 57.1337 57.7817 57.8088 55.8307Z" fill="#4AD11B"/>
<path fill-rule="evenodd" clip-rule="evenodd" d="M55.2282 74.7149C55.9034 72.7639 58.0323 71.7296 59.9834 72.4047L123.572 94.4085C125.523 95.0837 126.557 97.2126 125.882 99.1637C125.207 101.115 123.078 102.149 121.127 101.474L57.5385 79.4701C55.5875 78.7949 54.5531 76.666 55.2282 74.7149Z" fill="#4AD11B"/>
<path fill-rule="evenodd" clip-rule="evenodd" d="M86.8028 50.1025C88.8406 50.4334 90.2245 52.3536 89.8936 54.3915L82.901 97.4624C82.5701 99.5002 80.6499 100.884 78.612 100.553C76.5741 100.222 75.1903 98.3021 75.5212 96.2642L82.5138 53.1934C82.8447 51.1555 84.7649 49.7717 86.8028 50.1025Z" fill="#4AD11B"/>
<path fill-rule="evenodd" clip-rule="evenodd" d="M123.34 62.7456C121.533 61.7461 119.259 62.4004 118.259 64.2069L97.1358 102.388C96.1364 104.195 96.7906 106.469 98.5972 107.469C100.404 108.468 102.678 107.814 103.678 106.007L124.801 67.8262C125.801 66.0197 125.146 63.745 123.34 62.7456Z" fill="#4AD11B"/>
</g>
<defs>
<clipPath id="clip0_651_23611">
<rect width="129.368" height="129.368" fill="white" transform="translate(42.3047) rotate(19.0874)"/>
</clipPath>
</defs>
</svg>
