<svg width="181" height="181" viewBox="0 0 181 181" fill="none" xmlns="http://www.w3.org/2000/svg">
<g opacity="0.2" clip-path="url(#clip0_651_23608)">
<path d="M110.049 25.6736L27.5807 65.1787C21.3787 68.1497 18.5217 75.1306 21.2105 80.7437L45.5883 131.633L150.548 81.3542L126.171 30.4645C123.482 24.8514 116.251 22.7026 110.049 25.6736Z" fill="#C2DEE4"/>
<path d="M89.2559 127.281L119.79 112.655L125.275 124.105L94.7409 138.731L89.2559 127.281Z" fill="#C2DEE4"/>
<rect x="86.6182" y="141.367" width="50.7846" height="10.5801" rx="3" transform="rotate(-25.5959 86.6182 141.367)" fill="#005D91"/>
<path d="M46.9627 134.502C50.2381 141.34 57.9454 144.484 64.1474 141.513L146.616 102.008C152.818 99.0372 155.198 91.0606 151.923 84.223L150.549 81.3545L45.5885 131.634L46.9627 134.502Z" fill="#005D91"/>
</g>
<defs>
<clipPath id="clip0_651_23608">
<rect width="135.426" height="135.426" fill="white" transform="translate(0 58.5068) rotate(-25.5959)"/>
</clipPath>
</defs>
</svg>
