<svg width="133" height="132" viewBox="0 0 133 132" fill="none" xmlns="http://www.w3.org/2000/svg">
<g opacity="0.1">
<path d="M97.7512 56.6498L32.9303 72.3826C29.3504 73.2515 27.1676 76.9198 28.055 80.5759L34.4821 107.056C35.3694 110.712 38.9909 112.972 42.5709 112.103L107.392 96.3698C110.972 95.5009 113.154 91.8326 112.267 88.1765L105.84 61.6965C104.953 58.0403 101.331 55.7809 97.7512 56.6498Z" fill="#FFBE83"/>
<path d="M33.0822 58.326L91.1728 44.2266C92.0287 44.0189 92.9342 44.1684 93.6901 44.6422C94.446 45.1161 94.9903 45.8754 95.2034 46.7533L97.6136 56.6833L33.0685 72.3493L30.6584 62.4193C30.4453 61.5414 30.581 60.6169 31.0355 59.8493C31.4901 59.0817 32.2263 58.5337 33.0822 58.326Z" fill="#CF4E06"/>
<path d="M87.728 45.0626C87.728 45.0626 86.6541 37.3676 80.9463 32.2428C76.9242 28.6269 72.8665 25.8562 65.9724 24.3969C65.4767 24.2868 64.9647 24.2943 64.4756 24.419C63.9865 24.5438 63.5332 24.7823 63.1505 25.1163C62.7677 25.4504 62.4656 25.8712 62.2672 26.3465C62.0689 26.8218 61.9796 27.339 62.0061 27.8586C62.1973 31.2318 60.4723 35.7245 51.1073 37.8786C39.0251 40.6606 34.0678 47.5864 36.4746 57.5025L87.728 45.0626Z" fill="#FAE4AB"/>
<rect x="54.8887" y="82.8257" width="30.6549" height="10.2183" rx="3" transform="rotate(-13.6426 54.8887 82.8257)" fill="white"/>
</g>
</svg>
