<svg width="142" height="143" viewBox="0 0 142 143" fill="none" xmlns="http://www.w3.org/2000/svg">
<g opacity="0.2" clip-path="url(#clip0_651_23609)">
<rect x="33.4648" y="10.8168" width="87.9045" height="111.879" rx="2" transform="rotate(6.52213 33.4648 10.8168)" fill="#DAE5FE"/>
<ellipse cx="69.8709" cy="79.326" rx="33.9631" ry="33.9631" transform="rotate(6.52213 69.8709 79.326)" fill="#4873B1"/>
<ellipse cx="69.8711" cy="79.326" rx="23.974" ry="23.974" transform="rotate(6.52213 69.8711 79.326)" fill="white"/>
<path d="M93.6899 82.0491C93.3323 85.1771 92.3621 88.2039 90.8347 90.9569C89.3073 93.7099 87.2526 96.1351 84.788 98.094C82.3233 100.053 79.497 101.507 76.4703 102.374C73.4436 103.24 70.2759 103.502 67.1479 103.145C64.02 102.787 60.9931 101.817 58.2402 100.29C55.4872 98.7622 53.062 96.7075 51.1031 94.2429C49.1442 91.7782 47.6899 88.9519 46.8233 85.9252C45.9566 82.8985 45.6947 79.7308 46.0523 76.6029L69.8711 79.326L93.6899 82.0491Z" fill="#B5CBFD"/>
<rect x="38.5117" y="19.4371" width="33.9631" height="7.99132" rx="2" transform="rotate(6.52213 38.5117 19.4371)" fill="#0D428E"/>
<rect x="92.104" y="25.5642" width="7.99133" height="7.99132" rx="2" transform="rotate(6.52213 92.104 25.5642)" fill="#0D428E"/>
<rect x="104.014" y="26.9258" width="7.99132" height="7.99132" rx="2" transform="rotate(6.52213 104.014 26.9258)" fill="#0D428E"/>
</g>
<defs>
<clipPath id="clip0_651_23609">
<rect width="127.861" height="127.861" fill="white" transform="translate(14.5234 0.60791) rotate(6.52213)"/>
</clipPath>
</defs>
</svg>
