<svg width="129" height="129" viewBox="0 0 129 129" fill="none" xmlns="http://www.w3.org/2000/svg">
<g opacity="0.1" clip-path="url(#clip0_651_23612)">
<path d="M65.5293 43.7311C65.2892 42.8563 64.2436 42.3792 63.1935 42.6674L54.3597 45.0918C53.3096 45.38 52.654 46.324 52.8944 47.1999L53.3259 48.7722L65.9611 45.3045L65.5293 43.7311Z" fill="#344054"/>
<path d="M36.5026 107.583C43.7001 107.531 47.6029 102.819 48.6197 95.6934L49.5167 89.4045C49.61 88.7515 49.892 88.1401 50.3281 87.6453C50.7642 87.1505 51.3354 86.7939 51.9714 86.6194L86.4448 77.1583C87.7449 76.8015 89.1327 77.2501 89.9772 78.3003L93.9587 83.2504C98.4705 88.8589 104.232 90.9187 110.447 87.289C117.382 83.2388 119.719 74.3341 115.669 67.3995L95.745 30.41C95.1905 29.5551 94.3783 28.8989 93.426 28.5365C92.4737 28.174 91.4307 28.1241 90.4482 28.394L78.3278 31.7203C77.3045 32.0012 76.4031 32.6133 75.7647 33.4609C75.1264 34.3086 74.787 35.3439 74.7996 36.405L74.8501 40.6843C74.856 41.1829 74.6965 41.6695 74.3965 42.0678C74.0965 42.4662 73.673 42.7539 73.1921 42.8859L45.8734 50.3834C45.3925 50.5153 44.8814 50.4841 44.4201 50.2947C43.9588 50.1053 43.5733 49.7683 43.3239 49.3365L41.1829 45.6309C40.6522 44.712 39.8319 43.995 38.8503 43.5919C37.8686 43.1889 36.7811 43.1226 35.7578 43.4035L23.6374 46.7298C22.6548 46.9994 21.7835 47.5748 21.1496 48.3725C20.5158 49.1703 20.1523 50.1491 20.1117 51.1672L21.8598 93.1449C21.9167 101.175 28.472 107.64 36.5026 107.583ZM84.2559 42.6865C92.6302 40.3882 101.281 45.3142 103.579 53.6875C105.878 62.0619 100.953 70.7128 92.5783 73.011C84.2049 75.3091 75.5531 70.3843 73.2548 62.01C70.9568 53.6366 75.8825 44.9845 84.2559 42.6865ZM36.235 55.8655C44.6093 53.5672 53.2605 58.4932 55.5585 66.8666C57.8568 75.2409 52.9317 83.8918 44.5574 86.1901C36.184 88.4881 27.5322 83.5634 25.2339 75.189C22.9359 66.8157 27.8616 58.1636 36.235 55.8655Z" fill="#D0D5DD"/>
<path d="M44.5584 86.1886C52.9328 83.8904 57.8578 75.2395 55.5595 66.8651C53.2615 58.4918 44.6103 53.5658 36.236 55.8641C27.8626 58.1621 22.9369 66.8142 25.2349 75.1876C27.5332 83.5619 36.1851 88.4867 44.5584 86.1886ZM46.6182 79.8292L39.5421 81.7712L38.3359 77.376L41.1377 73.7243L45.4122 75.435L46.6182 79.8292ZM49.2004 64.8064L51.1423 71.8824L46.7472 73.0887L43.0952 70.2859L44.8061 66.0123L49.2004 64.8064ZM34.1775 62.2242L41.2536 60.2822L42.4595 64.6764L39.6571 68.3294L35.3835 66.6184L34.1775 62.2242ZM29.6533 70.171L34.0475 68.965L37.7002 71.7665L35.9895 76.041L31.5953 77.247L29.6533 70.171Z" fill="#475467"/>
<path d="M92.576 73.0104C100.949 70.7124 105.875 62.0612 103.577 53.6869C101.279 45.3135 92.627 40.3878 84.2536 42.6858C75.8793 44.9841 70.9545 53.636 73.2525 62.0093C75.5508 70.3837 84.2017 75.3087 92.576 73.0104ZM94.715 52.5556C95.1529 52.4274 95.612 52.3877 96.0654 52.4387C96.5189 52.4898 96.9576 52.6307 97.356 52.853C97.7544 53.0754 98.1046 53.3749 98.3861 53.7341C98.6676 54.0932 98.8748 54.5048 98.9955 54.9448C99.1163 55.3849 99.1482 55.8445 99.0895 56.297C99.0308 56.7495 98.8825 57.1858 98.6534 57.5804C98.4243 57.975 98.1189 58.3201 97.7551 58.5955C97.3913 58.8708 96.9762 59.071 96.5342 59.1843C95.6609 59.4082 94.7345 59.28 93.9548 58.8273C93.1751 58.3747 92.6044 57.6338 92.3658 56.7643C92.1272 55.8949 92.2397 54.9665 92.6791 54.1792C93.1186 53.3919 93.8497 52.8088 94.715 52.5556ZM85.5264 47.3236C86.4056 47.0823 87.3446 47.2002 88.1368 47.6512C88.9291 48.1023 89.5097 48.8496 89.751 49.7287C89.9923 50.6079 89.8744 51.5469 89.4234 52.3391C88.9724 53.1314 88.2251 53.712 87.3459 53.9533C86.4667 54.1946 85.5278 54.0768 84.7355 53.6257C83.9432 53.1747 83.3626 52.4274 83.1213 51.5482C82.88 50.669 82.9979 49.7301 83.4489 48.9378C83.9 48.1455 84.6473 47.5649 85.5264 47.3236ZM89.484 61.7439C90.3631 61.5026 91.3021 61.6205 92.0944 62.0715C92.8867 62.5226 93.4673 63.2698 93.7086 64.149C93.9499 65.0282 93.832 65.9671 93.381 66.7594C92.9299 67.5517 92.1826 68.1323 91.3035 68.3736C90.4243 68.6149 89.4853 68.497 88.6931 68.046C87.9008 67.5949 87.3202 66.8476 87.0789 65.9685C86.8376 65.0893 86.9554 64.1503 87.4065 63.3581C87.8575 62.5658 88.6048 61.9852 89.484 61.7439ZM80.2947 56.5131C80.7326 56.3849 81.1917 56.3452 81.6451 56.3963C82.0986 56.4474 82.5373 56.5882 82.9357 56.8106C83.3342 57.033 83.6843 57.3325 83.9658 57.6916C84.2473 58.0508 84.4545 58.4624 84.5752 58.9024C84.696 59.3424 84.7279 59.8021 84.6692 60.2546C84.6105 60.7071 84.4622 61.1434 84.2331 61.538C84.004 61.9326 83.6987 62.2777 83.3348 62.553C82.971 62.8284 82.556 63.0286 82.1139 63.1419C81.2406 63.3658 80.3142 63.2376 79.5345 62.7849C78.7548 62.3322 78.1841 61.5913 77.9455 60.7219C77.7069 59.8524 77.8194 58.924 78.2589 58.1368C78.6983 57.3495 79.4294 56.7664 80.2947 56.5131Z" fill="#475467"/>
<path d="M87.3443 53.9556C88.2235 53.7143 88.9708 53.1336 89.4218 52.3414C89.8729 51.5491 89.9907 50.6101 89.7494 49.731C89.5081 48.8518 88.9275 48.1045 88.1352 47.6535C87.343 47.2024 86.404 47.0846 85.5248 47.3259C84.6457 47.5671 83.8984 48.1478 83.4473 48.94C82.9963 49.7323 82.8784 50.6713 83.1197 51.5505C83.361 52.4296 83.9416 53.1769 84.7339 53.628C85.5262 54.079 86.4651 54.1968 87.3443 53.9556ZM91.3019 68.3759C92.181 68.1346 92.9283 67.5539 93.3794 66.7617C93.8304 65.9694 93.9483 65.0304 93.707 64.1513C93.4657 63.2721 92.8851 62.5248 92.0928 62.0738C91.3005 61.6227 90.3615 61.5049 89.4824 61.7461C88.6032 61.9874 87.8559 62.5681 87.4049 63.3603C86.9538 64.1526 86.836 65.0916 87.0773 65.9707C87.3186 66.8499 87.8992 67.5972 88.6915 68.0482C89.4837 68.4993 90.4227 68.6171 91.3019 68.3759Z" fill="#D0D5DD"/>
<path d="M41.251 60.2859L42.457 64.6801L39.6545 68.3331L35.3809 66.6221L34.1749 62.2279L41.251 60.2859Z" fill="#98A2B3"/>
<path d="M39.5395 81.775L38.3333 77.3798L41.1351 73.728L45.4093 75.4378L46.6156 79.833L39.5395 81.775Z" fill="#98A2B3"/>
<path d="M51.1398 71.8862L46.7446 73.0924L43.0926 70.2897L44.8026 66.0164L49.1978 64.8101L51.1398 71.8862Z" fill="#98A2B3"/>
<path d="M34.045 68.9687L37.6967 71.7705L35.987 76.0448L31.5927 77.2508L29.6508 70.1747L34.045 68.9687Z" fill="#98A2B3"/>
<path d="M96.5352 59.1853C98.366 58.6829 99.4428 56.7914 98.9403 54.9607C98.4379 53.13 96.5465 52.0531 94.7157 52.5556C92.885 53.058 91.8082 54.9494 92.3106 56.7802C92.8131 58.6109 94.7045 59.6877 96.5352 59.1853Z" fill="#98A2B3"/>
<path d="M82.1168 63.1423C83.9475 62.6399 85.0243 60.7485 84.5219 58.9177C84.0194 57.087 82.128 56.0102 80.2973 56.5126C78.4665 57.0151 77.3897 58.9065 77.8922 60.7372C78.3946 62.568 80.286 63.6448 82.1168 63.1423Z" fill="#98A2B3"/>
</g>
<defs>
<clipPath id="clip0_651_23612">
<rect width="104.82" height="104.82" fill="white" transform="translate(0 27.7415) rotate(-15.3467)"/>
</clipPath>
</defs>
</svg>
