<svg width="200" height="200" viewBox="0 0 200 200" fill="none" xmlns="http://www.w3.org/2000/svg">
<path d="M151.818 114.091C150.81 118.535 149.451 124.404 147.273 128.636C140.023 142.781 128.362 150.065 111.229 150.771C85.3827 151.829 68.2493 146.82 58.756 135.427C51.0183 126.08 48.45 112.43 50.8883 93.6648C51.0834 92.1128 51.3109 90.5961 51.506 89.1499C51.5385 88.8324 51.6035 88.515 51.6361 88.1975C55.7 66.1523 59.6013 61.7079 59.6013 61.7079C59.6013 61.7079 69.5455 85.909 78.0677 72.3602C79.4656 67.4926 80.2459 62.9425 80.7661 58.604C80.7986 58.4629 80.7986 58.2865 80.8311 58.1102C82.7493 50.7029 83.367 44.0717 83.9522 37.6169C84.0822 36.2765 84.2123 34.9714 84.3423 33.6664V33.5605C84.3423 33.5605 84.4073 33.3842 84.4399 33.2784C85.8703 28.446 88.1461 23.5079 91.8524 18.1818C91.8524 18.1818 94.9735 41.4968 104.044 48.1633C113.082 54.8651 129.184 57.1208 132.727 74.5454C136.271 92.0053 140.909 77.2727 140.909 77.2727C140.909 77.2727 141.302 79.2031 147.999 88.1975C150.145 91.1251 152.013 104.391 151.818 114.091Z" fill="white"/>
<path d="M133.552 180.437C133.739 181.812 132.646 183.031 131.271 183.031H104.021C102.771 183.031 101.739 182.031 101.739 180.75V153.466H102.583C104.646 153.466 106.771 153.435 108.958 153.341C109.239 153.341 109.521 153.31 109.771 153.278L111.708 169.969C111.802 170.687 112.427 171.25 113.177 171.25H124.302C124.302 171.25 132.271 171.25 133.552 180.437Z" fill="white"/>
<path fill-rule="evenodd" clip-rule="evenodd" d="M111.525 151.043L113.638 169.25H124.302V171.25C124.302 169.25 124.303 169.25 124.304 169.25L124.307 169.25L124.312 169.25L124.326 169.25L124.362 169.25C124.39 169.251 124.425 169.252 124.468 169.254C124.554 169.257 124.668 169.263 124.809 169.274C125.089 169.297 125.475 169.341 125.935 169.428C126.849 169.599 128.09 169.941 129.388 170.634C132.07 172.065 134.798 174.896 135.533 180.161L135.533 180.167C135.888 182.771 133.829 185.031 131.271 185.031H104.021C101.684 185.031 99.7393 183.154 99.7393 180.75V151.466H102.583C104.626 151.466 106.721 151.435 108.872 151.343L108.915 151.341H108.958C109.106 151.341 109.281 151.324 109.522 151.294L111.525 151.043ZM124.291 173.25H113.177C111.417 173.25 109.948 171.937 109.725 170.227L109.723 170.213L108.001 155.379C106.55 155.429 105.129 155.454 103.739 155.462V180.75C103.739 180.909 103.857 181.031 104.021 181.031H131.271C131.354 181.031 131.436 180.996 131.5 180.924C131.56 180.856 131.58 180.782 131.57 180.709C131.023 176.79 129.126 175.028 127.505 174.163C126.651 173.707 125.819 173.475 125.199 173.359C124.892 173.302 124.645 173.274 124.484 173.261C124.404 173.255 124.347 173.252 124.315 173.251C124.303 173.25 124.295 173.25 124.291 173.25Z" fill="black"/>
<path d="M64.0215 180.437C63.834 181.812 64.9277 183.031 66.3027 183.031H93.5527C94.8027 183.031 95.834 182.031 95.834 180.75V153.466H94.9902C92.9277 153.466 90.8027 153.435 88.6152 153.341C88.334 153.341 88.0527 153.31 87.8027 153.278L85.8652 169.969C85.7715 170.687 85.1465 171.25 84.3965 171.25H73.2715C73.2715 171.25 65.3027 171.25 64.0215 180.437Z" fill="white"/>
<path fill-rule="evenodd" clip-rule="evenodd" d="M86.0487 151.043L83.9352 169.25H73.2715V171.25C73.2715 169.25 73.2703 169.25 73.2691 169.25L73.2666 169.25L73.261 169.25L73.2474 169.25L73.2115 169.25C73.1837 169.251 73.1481 169.252 73.1053 169.254C73.0197 169.257 72.9048 169.263 72.7643 169.274C72.4838 169.297 72.0983 169.341 71.6384 169.428C70.7241 169.599 69.4836 169.941 68.1854 170.634C65.503 172.065 62.7749 174.896 62.0406 180.161L62.0398 180.167C61.6848 182.771 63.7441 185.031 66.3027 185.031H93.5527C95.8894 185.031 97.834 183.154 97.834 180.75V151.466H94.9902C92.9476 151.466 90.8523 151.435 88.7009 151.343L88.6581 151.341H88.6152C88.4676 151.341 88.292 151.324 88.0508 151.294L86.0487 151.043ZM73.2827 173.25H84.3965C86.1562 173.25 87.6254 171.937 87.8484 170.227L87.8503 170.213L89.5723 155.379C91.0233 155.429 92.4442 155.454 93.834 155.462V180.75C93.834 180.909 93.7161 181.031 93.5527 181.031H66.3027C66.2191 181.031 66.1371 180.996 66.0737 180.924C66.013 180.856 65.9934 180.782 66.0029 180.709C66.5507 176.79 68.4468 175.028 70.0685 174.163C70.9227 173.707 71.7544 173.475 72.3742 173.359C72.6815 173.302 72.9285 173.274 73.0889 173.261C73.1688 173.255 73.2263 173.252 73.2581 173.251C73.2701 173.25 73.2783 173.25 73.2827 173.25Z" fill="black"/>
<path d="M148.74 119.687C147.771 123.625 146.302 127.562 144.208 131.312C137.24 143.844 125.333 150.5 108.865 151.125C84.0208 152.062 67.5521 147.625 58.4271 137.531C50.9896 129.25 48.5208 117.156 50.8646 100.531C51.0521 99.1562 51.2708 97.8125 51.4583 96.5312C51.4896 96.25 51.5521 95.9687 51.5833 95.6875C55.4896 76.1562 59.2396 72.2187 59.2396 72.2187C59.2396 72.2187 71.3333 99.8125 76.9896 81.6562C78.3333 77.3437 79.0833 73.3125 79.5833 69.4687C79.6146 69.3437 79.6146 69.1875 79.6458 69.0312C81.4896 62.4687 82.0833 56.5937 82.6458 50.875C82.7708 49.6875 82.8958 48.5312 83.0208 47.375V47.2812C83.0208 47.2812 83.0833 47.125 83.1146 47.0312C84.4896 42.75 86.6771 38.375 90.2396 33.6562C90.2396 33.6562 93.2396 54.3125 101.958 60.2187C110.646 66.1562 125.771 69.2812 129.177 84.7187C132.583 100.187 136.74 87.8437 136.74 87.8437C136.74 87.8437 138.615 93.3125 145.052 101.281C147.115 103.875 148.927 111.094 148.74 119.687Z" fill="#9EF22E"/>
<path d="M106.083 92.3125C107.636 92.3125 108.896 91.0533 108.896 89.5C108.896 87.9467 107.636 86.6875 106.083 86.6875C104.53 86.6875 103.271 87.9467 103.271 89.5C103.271 91.0533 104.53 92.3125 106.083 92.3125Z" fill="black"/>
<path d="M93.6455 92.3125C95.1988 92.3125 96.458 91.0533 96.458 89.5C96.458 87.9467 95.1988 86.6875 93.6455 86.6875C92.0922 86.6875 90.833 87.9467 90.833 89.5C90.833 91.0533 92.0922 92.3125 93.6455 92.3125Z" fill="black"/>
<path d="M96.7706 106.75C91.0206 106.75 87.5206 102.5 86.3643 99.7813C85.8643 98.5938 86.3956 97.2188 87.5831 96.7188C88.7706 96.2188 90.1456 96.75 90.6456 97.9375C90.8956 98.5313 93.3331 103.531 99.3643 101.656C100.614 101.25 101.927 101.969 102.302 103.188C102.677 104.438 101.989 105.75 100.771 106.125C99.3331 106.563 97.9893 106.781 96.7393 106.781L96.7706 106.75Z" fill="black"/>
<path d="M150.833 90.1562C150.083 88.8438 149.333 87.5 148.614 86.1875C145.364 80.2812 143.302 76.625 141.552 75.4375L139.864 74.2812L139.208 76.25C138.614 78.0312 137.458 79.9688 136.958 80.125C136.958 80.0938 135.646 79.5625 134.239 73.125C131.396 60.1562 121.364 55.0625 112.521 50.5938C109.739 49.1562 107.083 47.8125 104.864 46.3125C96.3644 40.5 93.2081 19.5312 93.1769 19.3125L92.6144 15.625L90.3644 18.625C81.5831 30.25 80.5831 40.125 79.5519 50.5625C78.9581 56.5938 78.3331 62.8125 76.1769 69.75C75.0831 73.1562 73.7394 75.0938 72.3644 75.1875H72.2394C68.7394 75.1875 63.1769 66.125 60.3331 59.625L59.2706 57.1562L57.6456 59.3125C57.4581 59.5938 52.5831 66.4063 47.7706 100.094C45.2706 117.688 47.9894 130.625 56.1144 139.625C62.9894 147.25 73.6144 151.875 88.3331 153.594C90.8644 153.906 93.4894 154.125 96.2706 154.219C98.0519 154.312 99.8644 154.375 101.739 154.375H102.583C104.646 154.375 106.771 154.344 108.958 154.25C109.239 154.25 109.521 154.219 109.771 154.188C126.771 153.344 139.614 145.969 146.958 132.844C155.958 116.687 154.239 96.1875 150.833 90.1562ZM148.739 119.688C147.771 123.625 146.302 127.562 144.208 131.312C140.708 137.594 135.989 142.375 130.083 145.688C129.364 146.094 128.614 146.5 127.833 146.844C125.614 147.906 123.208 148.781 120.677 149.438C119.802 149.688 118.896 149.875 117.989 150.062C117.114 150.25 116.177 150.406 115.271 150.531C114.302 150.688 113.333 150.812 112.333 150.875C111.364 150.969 110.364 151.031 109.364 151.094C109.208 151.125 109.021 151.125 108.864 151.125C106.396 151.219 104.021 151.25 101.739 151.25C99.8644 151.25 98.0206 151.188 96.2706 151.094C94.7706 151.031 93.3019 150.938 91.8956 150.812C90.8019 150.719 89.7394 150.625 88.7081 150.5C87.8331 150.406 86.9894 150.281 86.1456 150.156C85.3956 150.062 84.6456 149.938 83.9269 149.812C82.2081 149.5 80.5519 149.156 78.9894 148.781C78.2706 148.594 77.5519 148.406 76.8331 148.188C76.3644 148.062 75.9269 147.938 75.4894 147.812C74.6144 147.531 73.7706 147.25 72.9581 146.938C71.4581 146.375 70.0519 145.781 68.7394 145.156C68.2706 144.906 67.8019 144.688 67.3644 144.438C64.8644 143.094 62.6456 141.531 60.7081 139.781C60.3331 139.469 59.9894 139.156 59.6769 138.812C59.2394 138.406 58.8331 137.969 58.4269 137.531C50.9894 129.25 48.5206 117.156 50.8644 100.531C51.0519 99.1562 51.2706 97.8125 51.4581 96.5312C51.4894 96.25 51.5519 95.9688 51.5831 95.6875C54.4894 76.875 57.3019 67.8438 58.8956 63.875C61.4894 69.0938 66.8331 78.3125 72.2706 78.3125C72.3644 78.3125 72.4581 78.3125 72.5519 78.3125C75.3956 78.1562 77.6144 75.5937 79.1456 70.7187C79.3331 70.1562 79.4894 69.5938 79.6456 69.0625C81.4894 62.5 82.0831 56.625 82.6456 50.9062C82.7706 49.7188 82.8956 48.5625 83.0206 47.4062V47.3125C83.9269 39.2813 85.2394 31.9062 90.7394 23.5312C92.1456 30.1875 95.7706 43.9062 103.114 48.9375C105.489 50.5312 108.208 51.9375 111.114 53.4062C119.739 57.7812 128.646 62.3125 131.177 73.8125C132.583 80.2188 134.302 83.125 136.771 83.25C138.864 83.4375 140.239 81.4062 141.177 79.6562C142.489 81.5625 144.271 84.7812 145.864 87.7188C146.614 89.0312 147.364 90.375 148.114 91.7188C150.177 95.4062 151.833 107.406 148.739 119.719V119.688Z" fill="black"/>
<path d="M134.779 23.5513C136.218 21.5777 139.342 22.6998 139.166 25.1616L139.164 25.1948L139.16 25.2271L138.501 31.5298H145.022C145.903 31.5299 146.726 31.993 147.158 32.7798C147.587 33.5602 147.544 34.5051 147.06 35.2544L147.061 35.2554L137.597 49.9819L137.598 49.9829C136.878 51.1113 135.6 51.2472 134.757 50.9536C133.867 50.644 132.984 49.7027 133.151 48.3784H133.15L134.037 41.0103H127.704C125.67 41.0099 124.65 38.7737 125.687 37.2222L134.762 23.5581L134.893 23.6353L134.779 23.5513ZM137.962 25.9702C137.979 25.9494 137.996 25.9287 138.012 25.9067L138.006 25.9028L137.962 25.9702Z" fill="white" stroke="black" stroke-width="4"/>
</svg>
