<svg width="181" height="180" viewBox="0 0 181 180" fill="none" xmlns="http://www.w3.org/2000/svg">
<path d="M79.8994 134.364C81.8028 134.599 85.0647 134.763 87.1562 134.834V163.863C87.1561 164.827 86.3812 165.578 85.4414 165.578H64.9492C63.9152 165.578 63.1158 164.662 63.2568 163.628C64.1969 156.719 70.2129 156.719 70.2129 156.719H76.8613C77.4251 156.719 77.8951 156.296 77.9658 155.756L79.8994 134.364ZM103.035 155.756C103.106 156.296 103.576 156.719 104.14 156.719H110.788C110.788 156.719 116.804 156.719 117.744 163.628C117.885 164.662 117.087 165.578 116.053 165.578H95.5596C94.6198 165.578 93.8449 164.827 93.8447 163.863V134.834C95.9362 134.763 99.1981 134.599 101.102 134.364L103.035 155.756Z" fill="url(#paint0_linear_2007_36736)"/>
<path d="M111.112 14.4219C118.089 20.6629 122.496 34.325 120.7 45.3428C118.551 58.5336 113.743 58.8581 113.612 64.2432C113.612 64.5033 113.619 64.776 113.634 65.0635C114.018 72.6521 124.984 73.5381 126.523 66.6094C127.017 64.3868 126.866 62.0933 126.498 60.0137C134.862 68.8761 139.992 80.8256 139.992 93.9736C139.992 121.305 117.835 143.461 90.5039 143.462C63.1726 143.462 41.0166 121.305 41.0166 93.9736C41.0166 83.0091 44.584 72.8791 50.6191 64.6768C50.6035 65.0193 50.5947 65.3611 50.5947 65.7002C50.5948 70.0975 51.8239 72.9623 54.1582 73.8701C56.4924 74.777 59.2745 72.4043 60.1348 68.4199C60.9952 64.4351 63.2978 58.3581 69.5635 52.6572C69.8604 52.3871 70.157 52.1277 70.4531 51.8779C81.1589 42.543 91.6735 44.0329 102.539 34.4844C111.951 26.2132 111.119 14.5111 111.112 14.4219Z" fill="url(#paint1_radial_2007_36736)"/>
<path d="M79.1615 99.6779C76.6565 99.6779 74.6258 97.6472 74.6258 95.1422C74.6258 92.6372 76.6565 90.6064 79.1615 90.6064C81.6665 90.6064 83.6973 92.6372 83.6973 95.1422C83.6973 97.6472 81.6665 99.6779 79.1615 99.6779Z" fill="#162034"/>
<path d="M101.843 99.6779C99.3381 99.6779 97.3074 97.6472 97.3074 95.1422C97.3074 92.6372 99.3381 90.6064 101.843 90.6064C104.348 90.6064 106.379 92.6372 106.379 95.1422C106.379 97.6472 104.348 99.6779 101.843 99.6779Z" fill="#162034"/>
<path d="M84.6067 113.365L82.3203 112.045L84.5883 108.117L86.8747 109.437C90.5808 111.576 95.3202 110.307 97.4601 106.601L98.7806 104.314L102.709 106.582L101.388 108.869C97.9959 114.744 90.4824 116.757 84.6067 113.365Z" fill="#162034"/>
<path d="M63.4656 33.0115C63.2019 33.9233 63.8861 34.8332 64.8352 34.8332H70.6546C71.843 34.8332 72.5098 36.2017 71.7775 37.1376L58.6038 53.9729C57.6374 55.2079 55.6757 54.2048 56.1113 52.6983L58.8303 43.2938C59.094 42.3821 58.4098 41.4721 57.4607 41.4721H51.6413C50.4529 41.4721 49.7861 40.1036 50.5184 39.1677L63.6921 22.3324C64.6585 21.0974 66.6202 22.1005 66.1846 23.6071L63.4656 33.0115Z" fill="#096929"/>
<defs>
<linearGradient id="paint0_linear_2007_36736" x1="90.5005" y1="134.364" x2="90.5005" y2="165.578" gradientUnits="userSpaceOnUse">
<stop stop-color="#00A838"/>
<stop offset="1" stop-color="#02501B"/>
</linearGradient>
<radialGradient id="paint1_radial_2007_36736" cx="0" cy="0" r="1" gradientUnits="userSpaceOnUse" gradientTransform="translate(90.5039 86.5896) rotate(-47.3126) scale(107.007 108.657)">
<stop offset="0.296239" stop-color="#67FF53"/>
<stop offset="1" stop-color="#00B5C9"/>
</radialGradient>
</defs>
</svg>
