<svg width="186" height="191" viewBox="0 0 186 191" fill="none" xmlns="http://www.w3.org/2000/svg">
<g opacity="0.2">
<path d="M118.375 43.8089L120.275 59.5179C120.366 60.27 120.035 61.0385 119.353 61.6601C118.672 62.2817 117.7 62.7019 116.645 62.8296C115.59 62.9573 114.546 62.7808 113.736 62.3396C112.926 61.8984 112.42 61.2281 112.33 60.4792L110.429 44.7701" fill="#260091"/>
<path d="M123.586 147.583L22.2316 159.844L59.1584 63.6528L61.3302 57.9899L64.7898 62.9715L123.586 147.583Z" fill="#9D9BFF"/>
<path d="M179.894 140.771L123.587 147.582L61.3311 57.9897L116.229 51.3484L179.894 140.771Z" fill="#C5C0FA"/>
<path d="M65.4033 50.2172L75.6566 134.972L67.7108 135.933L57.4575 51.1785" fill="#260091"/>
<path d="M98.8631 150.579L46.9696 156.857L65.8534 107.441L66.9658 104.531L68.7371 107.093L98.8631 150.579Z" fill="#551BD1"/>
</g>
</svg>
