<svg width="32" height="32" viewBox="0 0 32 32" fill="none" xmlns="http://www.w3.org/2000/svg">
<g filter="url(#filter0_i_1951_7455)">
<path d="M20.5068 0.914062C22.0326 2.27877 22.9962 5.26644 22.6035 7.67578C22.1213 10.6348 21.0295 10.6329 21.0557 11.9023C21.0564 11.9297 21.0562 11.9577 21.0576 11.9863C21.1414 13.6459 23.5393 13.8394 23.876 12.3242C23.9839 11.8382 23.9477 11.3376 23.8672 10.8828C25.697 12.8209 26.8213 15.4328 26.8213 18.3086C26.8211 24.2849 21.9763 29.1297 16 29.1299C10.0235 29.1298 5.17794 24.285 5.17773 18.3086C5.17775 15.911 5.95852 13.6961 7.27832 11.9023C7.2749 11.9771 7.27344 12.0519 7.27344 12.126C7.27348 13.0872 7.54158 13.7135 8.05176 13.9121C8.5622 14.1106 9.17122 13.592 9.35938 12.7207C9.54751 11.8493 10.0507 10.5201 11.4209 9.27344C11.5182 9.18488 11.6159 9.10212 11.7129 9.02344C14.0207 7.07315 16.2885 7.3608 18.6318 5.30176C20.6979 3.48615 20.5068 0.914062 20.5068 0.914062Z" fill="#60FF4B"/>
</g>
<path d="M12.7741 19.8464C12.0614 19.8464 11.4837 19.2687 11.4837 18.556C11.4837 17.8433 12.0614 17.2656 12.7741 17.2656C13.4867 17.2656 14.0645 17.8433 14.0645 18.556C14.0645 19.2687 13.4867 19.8464 12.7741 19.8464Z" fill="#162034"/>
<path d="M19.2252 19.8464C18.5126 19.8464 17.9349 19.2687 17.9349 18.556C17.9349 17.8433 18.5126 17.2656 19.2252 17.2656C19.9379 17.2656 20.5156 17.8433 20.5156 18.556C20.5156 19.2687 19.9379 19.8464 19.2252 19.8464Z" fill="#162034"/>
<path d="M14.0762 23.899L13.4258 23.5234L14.071 22.4059L14.7215 22.7814C15.7758 23.3901 17.1241 23.029 17.7329 21.9747L18.1086 21.324L19.2261 21.9692L18.8505 22.6199C17.8854 24.2914 15.7478 24.8641 14.0762 23.899Z" fill="#162034"/>
<defs>
<filter id="filter0_i_1951_7455" x="5.17773" y="-0.0859375" width="22.6426" height="29.2158" filterUnits="userSpaceOnUse" color-interpolation-filters="sRGB">
<feFlood flood-opacity="0" result="BackgroundImageFix"/>
<feBlend mode="normal" in="SourceGraphic" in2="BackgroundImageFix" result="shape"/>
<feColorMatrix in="SourceAlpha" type="matrix" values="0 0 0 0 0 0 0 0 0 0 0 0 0 0 0 0 0 0 127 0" result="hardAlpha"/>
<feOffset dx="1" dy="-1"/>
<feGaussianBlur stdDeviation="2"/>
<feComposite in2="hardAlpha" operator="arithmetic" k2="-1" k3="1"/>
<feColorMatrix type="matrix" values="0 0 0 0 0 0 0 0 0 0.54902 0 0 0 0 0.466667 0 0 0 0.6 0"/>
<feBlend mode="normal" in2="shape" result="effect1_innerShadow_1951_7455"/>
</filter>
</defs>
</svg>
